<?xml version="1.0" encoding="utf-8"?>
<svg xmlns="http://www.w3.org/2000/svg" xmlns:xlink="http://www.w3.org/1999/xlink">
    <symbol id="icon-user-group" viewBox="0 0 110.21 66.94">
        <path fill="#086639" d="M99.27,12.71A14.75,14.75,0,1,0,109.7,30.78,14.74,14.74,0,0,0,99.27,12.71Z"/>
        <path fill="#086639" d="M25.59,53.38A13.53,13.53,0,0,1,29,44.52a36.33,36.33,0,0,0-9.22,1.27C8.66,48.78.92,56,2.51,62c1.31,4.89,11.4,6.43,22.55,3.44a45.69,45.69,0,0,0,6.18-2.13C28,60.91,25.59,57.64,25.59,53.38Z"/>
        <path fill="#086639" d="M18.57,41.21A14.75,14.75,0,1,0,.51,30.78,14.75,14.75,0,0,0,18.57,41.21Z"/>
        <path fill="#086639" d="M90.41,45.79a36.33,36.33,0,0,0-9.22-1.27,13.58,13.58,0,0,1,3.43,8.86c0,4.26-2.44,7.53-5.65,9.9a45.69,45.69,0,0,0,6.18,2.13c11.15,3,21.24,1.45,22.55-3.44C109.29,56,101.55,48.78,90.41,45.79Z"/>
        <path fill="#09a75a" d="M55.11,40.65c-13.18,0-23.85,5.7-23.85,12.73,0,5.78,10.67,10.46,23.85,10.46S79,59.16,79,53.38C79,46.35,68.28,40.65,55.11,40.65Zm18-22.7a18,18,0,1,0-18,18A18,18,0,0,0,73.06,18Z"/>
    </symbol>
    <symbol id="icon-previous" viewBox="0 0 490.235 490.235">
        <path d="M6.2,240.573l213.1,176.3c5.1,4.2,12.2,5.1,18.2,2.3c6-2.8,9.8-8.9,9.8-15.5v-88.4c82.9,0.4,140.8,8.3,210.8,131.8	c3.1,5.5,8.9,8.7,14.9,8.7c1.5,0,2.9-0.2,4.4-0.6c7.5-2,12.8-8.8,12.8-16.6c0-3.4,0-7,0-10.7c0.2-46.6,0.6-117-31.8-176.9 c-37.2-68.9-108.2-106-211.1-110.6v-88.8c0-6.6-3.8-12.7-9.8-15.5s-13.1-1.9-18.2,2.3L6.2,214.073c-3.9,3.3-6.2,8.1-6.2,13.2 S2.2,237.273,6.2,240.573z M213.1,87.973v69.2c0,9.4,7.6,17.1,17,17.2c191,1.8,220.8,113.3,225.2,204.6 c-67.7-92.7-132.4-98-225-98l0,0c-4.5,0-8.9,1.8-12.1,5c-3.2,3.2-5,7.6-5,12.1v69.2l-169-139.9L213.1,87.973z"/>
    </symbol>
    <symbol id="icon-t-logo" viewBox="0 0 215.07 215.07" style="fill-rule:evenodd;">
        <path fill="#e0a034" d="M180.74,86c-3.86,3.5-7.74,7-11.69,10.36a159,159,0,0,1-16.54,12.8c-9.33,6.11-18.92,11.82-27.08,19.53a51,51,0,0,1-5-3,.62.62,0,0,1-.22-.8,8.73,8.73,0,0,0,.89-2c.2-1.3-1.2-1.89-2.27-1.08a4.42,4.42,0,0,0-1.39,1.86,5.18,5.18,0,0,0,.68,5.16c.86,1.05,2,1.84,2.88,2.89a.52.52,0,0,1,0,.71.8.8,0,0,1-.69.26,1.63,1.63,0,0,0-1,.18,136.87,136.87,0,0,0-20.64,13.62c-5.7,4.48-10.94,9.25-16.39,14.08a1,1,0,0,1-1,.14c-.52-.15-1.31-.4-2.1-.56-2.24-.43-3.41.22-2.81,2.67,1,4.36,6.66,10.38,10.57,12.43,1.51.79,2.84.85,2.62-1.28l-.24-2.32c-.08-.81,0-1.2.7-1.63a187.39,187.39,0,0,0,20.07-13.54c6.16-4.89,12.41-10.16,17.45-16.2a.56.56,0,0,1,.93,0,31,31,0,0,0,3.41,3.58,5.5,5.5,0,0,0,.7.52,3.81,3.81,0,0,0,4.34.06,2.4,2.4,0,0,0,.7-.72,1.43,1.43,0,0,0-.47-1.86.75.75,0,0,0-1,0c-.19.18-.47.4-.66.58a.4.4,0,0,1-.63,0c-.47-.62-1.08-1.29-1.5-1.91,0-2.57.1-4.87,1.7-6.59a5.23,5.23,0,0,1,4.67-1.85,7.56,7.56,0,0,1,3.85,2.13c5.64-5,11.49-9,17.52-13.48s14.45-11.25,17.66-18c2.36-5,2.28-11.43,2-16.78Z"/>
        <path fill="#eec270" d="M34.33,86c3.86,3.5,7.74,7,11.69,10.36a159,159,0,0,0,16.54,12.8c9.33,6.11,18.92,11.82,27.09,19.53a52,52,0,0,0,5-3,.61.61,0,0,0,.22-.8,8.28,8.28,0,0,1-.88-2c-.21-1.3,1.19-1.89,2.26-1.08a4.42,4.42,0,0,1,1.39,1.86,5.2,5.2,0,0,1-.67,5.16c-.87,1.05-2,1.84-2.89,2.89a.54.54,0,0,0,0,.71.81.81,0,0,0,.69.26,1.63,1.63,0,0,1,1,.18,136.37,136.37,0,0,1,20.64,13.62c5.7,4.48,10.94,9.25,16.39,14.08a1,1,0,0,0,1,.14c.53-.15,1.31-.4,2.1-.56,2.24-.43,3.41.22,2.82,2.67-1.06,4.36-6.66,10.38-10.58,12.43-1.51.79-2.84.85-2.62-1.28l.24-2.32c.08-.81,0-1.2-.7-1.63a187.39,187.39,0,0,1-20.07-13.54c-6.16-4.89-12.41-10.16-17.45-16.2a.56.56,0,0,0-.93,0,31,31,0,0,1-3.41,3.58,6.23,6.23,0,0,1-.69.52,3.82,3.82,0,0,1-4.35.06,2.4,2.4,0,0,1-.7-.72,1.43,1.43,0,0,1,.47-1.86.75.75,0,0,1,1,0c.19.18.47.4.66.58a.4.4,0,0,0,.63,0c.47-.62,1.08-1.29,1.5-1.91,0-2.57-.1-4.87-1.7-6.59a5.23,5.23,0,0,0-4.67-1.85,7.56,7.56,0,0,0-3.85,2.13c-5.64-5-11.49-9-17.52-13.48s-14.45-11.25-17.66-18c-2.35-5-2.28-11.43-2-16.78Z"/>
        <polygon fill="#eec270" points="107.54 36.07 116.76 64.64 146.78 64.58 122.46 82.18 131.79 110.72 107.54 93.02 83.28 110.72 92.61 82.18 68.29 64.58 98.31 64.64 107.54 36.07"/>
        <path fill="#e0a034" d="M215.07,107.54A107.54,107.54,0,1,0,107.54,215.07,107.53,107.53,0,0,0,215.07,107.54Zm-10.48,0a97.06,97.06,0,1,0-97,97.05A97.05,97.05,0,0,0,204.59,107.54Z"/>
    </symbol>
    <symbol id="icon-ct-logo" viewBox="0 0 215.07 215.07" style="fill-rule:evenodd;">
        <path  fill="#86b7d5" d="M149.62,45.78c1.61,2.76,2.83,8.22,3.37,15.35q2.3-3.39,4.28-6.4A22.08,22.08,0,0,1,159.14,71c2.82-1.09,7.68-4.45,9.11-6.3,1.55,7.77.32,14.46-2.92,17.21,3.54-.08,8.22-1.5,10.17-3.9q1.51,7.24-3.92,13.32a22.49,22.49,0,0,0,7.31-1.78c-.26,5.82-4.94,11.27-6.48,14.22a19.84,19.84,0,0,0,7.36-.72c-1,5.55-4.54,7.68-6,10.25a16,16,0,0,0,5.55-.49c-.11,4.17-3.57,8.28-9.87,12.18a27.89,27.89,0,0,0,7,2.07,21.08,21.08,0,0,1-8.12,6,13.43,13.43,0,0,0,4.16,1.73c-5.83,6.5-13.94,10.37-24.43,11.31,2.06,5.94,2.86,12.16,3.27,20.22a96,96,0,0,1,0,10.88c-.15,2.52-2.29,3.49-4.55,3.25-2.47-.26-5.09-2-5.36-4.64-.32-3.15-.57-6.42-.91-9.57A45.73,45.73,0,0,0,136.84,153c-8.63,4.71-16.35-.16-21.76-10.3-4.56-8.54-7.27-21-6.16-31.16l-1.38-1.62-1.39,1.62c1.11,10.11-1.6,22.62-6.16,31.16-5.41,10.14-13.13,15-21.76,10.3a46,46,0,0,0-3.73,13.35c-.34,3.15-.58,6.42-.91,9.57-.27,2.68-2.88,4.38-5.36,4.64-2.26.24-4.4-.73-4.55-3.25a100.91,100.91,0,0,1,0-10.88c.41-8.06,1.21-14.28,3.27-20.22-10.49-.94-18.6-4.81-24.43-11.31a13.32,13.32,0,0,0,4.16-1.73,21.08,21.08,0,0,1-8.12-6,27.89,27.89,0,0,0,7-2.07c-6.3-3.9-9.75-8-9.86-12.18a15.94,15.94,0,0,0,5.54.49c-1.42-2.57-4.92-4.7-6-10.25a19.86,19.86,0,0,0,7.36.72c-1.54-3-6.22-8.4-6.48-14.22a22.49,22.49,0,0,0,7.31,1.78Q38.06,85.3,39.57,78c2,2.4,6.64,3.82,10.17,3.9-3.24-2.75-4.47-9.44-2.91-17.21,1.42,1.85,6.28,5.21,9.1,6.3a22.12,22.12,0,0,1,1.87-16.3q2,3,4.29,6.4c.53-7.13,1.75-12.59,3.36-15.35a12.18,12.18,0,0,0,4.19,5.8c-.19-3.86-.17-8.94,2.74-12a15.74,15.74,0,0,0,2.17,4.26c.34-2.73,1.73-8.2,5.53-9.28a66.47,66.47,0,0,0-.22,7.63c2.09-3.43,5-6.31,8-7.49C80.85,53.19,65,88.5,65,107.82A25.36,25.36,0,0,0,67.75,120c4,7.92,8.67,7.17,10.36-1.26a42.76,42.76,0,0,0,.72-9.56c4.45-1.45,8.83.3,10.38,4.15a89.12,89.12,0,0,0,9.1-14.05L94.4,89.82a119.17,119.17,0,0,0,.82-17.76c-.11-3.42-.64-7.74-.23-11A5.29,5.29,0,0,1,97.73,57c1.45,4.89,3.27,9.64,5,14.44,1.45,4.11,4,11.74.43,15.37a5.37,5.37,0,0,0,8.81,0c-3.62-3.63-1-11.26.43-15.37,1.7-4.8,3.52-9.55,5-14.44a5.29,5.29,0,0,1,2.74,4.12c.42,3.24-.12,7.56-.23,11a120.52,120.52,0,0,0,.82,17.76l-3.91,9.42a89.83,89.83,0,0,0,9.1,14.05c1.55-3.85,5.93-5.6,10.38-4.15a43.37,43.37,0,0,0,.72,9.56c1.69,8.43,6.4,9.18,10.36,1.26a25.36,25.36,0,0,0,2.77-12.14c0-19.32-15.87-54.63-22.87-73.17,3,1.18,5.9,4.06,8,7.49a66.47,66.47,0,0,0-.22-7.63c3.8,1.08,5.19,6.55,5.53,9.28a15.74,15.74,0,0,0,2.17-4.26c2.91,3.11,2.93,8.19,2.74,12A12.18,12.18,0,0,0,149.62,45.78Z"/>
        <path  fill="#5891ba" d="M59.8,131a23.07,23.07,0,0,1-11.55-4.22,16.75,16.75,0,0,0,7-2.15c-4.77-2-9.82-6.28-11-10.07a20,20,0,0,0,6.59.56c-2.12-2-5.09-6.07-5.83-9.39a33.87,33.87,0,0,0,7,1.13,27,27,0,0,1-6.36-13.64,31.29,31.29,0,0,0,9.54,6.34,50.88,50.88,0,0,1-3.51-14,68.13,68.13,0,0,0,8.74,7.14q-4.5-9.37-2.85-17.85c1.3,1.39,3.1,3.08,5.38,5.06a46.5,46.5,0,0,1,.18-16.22,23.35,23.35,0,0,0,4.76,6c.13-5.79.66-11,2.27-15.3a31.15,31.15,0,0,0,2.16,4.33,115.46,115.46,0,0,1,2.6-12,8.64,8.64,0,0,0,2.05,2.9,21.64,21.64,0,0,1,2.93-7.53,66.47,66.47,0,0,1,.22-7.63c-3.8,1.08-5.19,6.55-5.53,9.28a15.74,15.74,0,0,1-2.17-4.26c-2.91,3.11-2.93,8.19-2.74,12a12.18,12.18,0,0,1-4.19-5.8c-1.61,2.76-2.83,8.22-3.36,15.35q-2.31-3.39-4.29-6.4A22.12,22.12,0,0,0,55.93,71c-2.82-1.09-7.68-4.45-9.1-6.3-1.56,7.77-.33,14.46,2.91,17.21-3.53-.08-8.21-1.5-10.17-3.9q-1.51,7.24,3.92,13.32a22.49,22.49,0,0,1-7.31-1.78c.26,5.82,4.94,11.27,6.48,14.22a19.86,19.86,0,0,1-7.36-.72c1,5.55,4.54,7.68,6,10.25a15.94,15.94,0,0,1-5.54-.49c.11,4.17,3.56,8.28,9.86,12.18a27.89,27.89,0,0,1-7,2.07,21.08,21.08,0,0,0,8.12,6,13.32,13.32,0,0,1-4.16,1.73c5.83,6.5,13.94,10.37,24.43,11.31.31-.91.66-1.81,1-2.71A5.3,5.3,0,0,1,63.87,141a20.58,20.58,0,0,0,6.23-2c.13-.24.27-.48.4-.73-6.55-.37-15.77.47-19.88-5.21A32,32,0,0,0,59.8,131Zm49.12-19.5c-1.11,10.11,1.6,22.62,6.16,31.16,5.41,10.14,13.13,15,21.76,10.3a118.41,118.41,0,0,0-9.23-16.56,222.8,222.8,0,0,0-18.69-24.9ZM100,142.67c4.56-8.54,7.27-21,6.16-31.16a222.8,222.8,0,0,0-18.69,24.9A118.41,118.41,0,0,0,78.23,153c8.63,4.71,16.35-.16,21.76-10.3Zm66.84-15.88c-2.62,2-8,4.18-11.56,4.22a32,32,0,0,0,9.18,2.05c-4.11,5.68-13.33,4.84-19.88,5.21.13.25.27.49.4.73a20.58,20.58,0,0,0,6.23,2,5.3,5.3,0,0,1-4.09,2.49c.37.9.72,1.8,1,2.71,10.49-.94,18.6-4.81,24.43-11.31a13.32,13.32,0,0,1-4.16-1.73,21.08,21.08,0,0,0,8.12-6,27.89,27.89,0,0,1-7-2.07c6.3-3.9,9.76-8,9.87-12.18a16,16,0,0,1-5.55.49c1.42-2.57,4.92-4.7,6-10.25a19.84,19.84,0,0,1-7.36.72c1.54-3,6.22-8.4,6.48-14.22a22.49,22.49,0,0,1-7.31,1.78Q177,85.3,175.5,78c-1.95,2.4-6.63,3.82-10.17,3.9,3.24-2.75,4.47-9.44,2.92-17.21-1.43,1.85-6.29,5.21-9.11,6.3a22.08,22.08,0,0,0-1.87-16.3q-2,3-4.28,6.4c-.54-7.13-1.76-12.59-3.37-15.35a12.18,12.18,0,0,1-4.19,5.8c.19-3.86.17-8.94-2.74-12a15.74,15.74,0,0,1-2.17,4.26c-.34-2.73-1.73-8.2-5.53-9.28a66.47,66.47,0,0,1,.22,7.63,21.44,21.44,0,0,1,2.93,7.53,8.64,8.64,0,0,0,2.05-2.9,115.46,115.46,0,0,1,2.6,12A31.15,31.15,0,0,0,145,54.46c1.61,4.3,2.14,9.51,2.27,15.3a23.35,23.35,0,0,0,4.76-6,46.5,46.5,0,0,1,.18,16.22q3.42-3,5.39-5.06,1.65,8.48-2.86,17.85a69.16,69.16,0,0,0,8.75-7.14,51.6,51.6,0,0,1-3.51,14,31.37,31.37,0,0,0,9.53-6.34,27,27,0,0,1-6.36,13.64,33.87,33.87,0,0,0,7-1.13c-.73,3.32-3.71,7.4-5.83,9.39a20,20,0,0,0,6.59-.56c-1.21,3.79-6.26,8.05-11,10.07a16.66,16.66,0,0,0,7,2.15Z"/>
        <path  fill="#a9cce1" d="M89.21,113.29c-4.51,5.89-9.42,11.52-13.61,17.2a73.92,73.92,0,0,0-5.1,7.78c-.13.25-.27.49-.4.73A49,49,0,0,0,68,143.47c-.37.9-.72,1.8-1,2.71-2.06,5.94-2.86,12.16-3.27,20.22a100.91,100.91,0,0,0,0,10.88c.15,2.52,2.29,3.49,4.55,3.25.23-5.19.79-10.17,1.21-14.24,1.2-11.49,4.87-23.11,11.82-32.42,6.26-8.45,15.81-20.29,22.19-28.73,1.37,1.58,2.74,3.17,4.09,4.76q2-2.39,4.08-4.76c6.38,8.44,15.93,20.28,22.19,28.73,6.95,9.31,10.62,20.93,11.82,32.42.43,4.07,1,9.05,1.21,14.24,2.26.24,4.4-.73,4.55-3.25a96,96,0,0,0,0-10.88c-.41-8.06-1.21-14.28-3.27-20.22-.31-.91-.66-1.81-1-2.71A49,49,0,0,0,145,139c-.13-.24-.27-.48-.4-.73a72.37,72.37,0,0,0-5.1-7.78c-4.19-5.68-9.1-11.31-13.61-17.2a89.83,89.83,0,0,1-9.1-14.05l3.91-9.42a120.52,120.52,0,0,1-.82-17.76c.11-3.42.65-7.74.23-11A5.29,5.29,0,0,0,117.34,57c-1.45,4.89-3.27,9.64-5,14.44-1.45,4.11-4.05,11.74-.43,15.37a5.37,5.37,0,0,1-8.81,0c3.62-3.63,1-11.26-.43-15.37-1.7-4.8-3.52-9.55-5-14.44A5.29,5.29,0,0,0,95,61.08c-.41,3.24.12,7.56.23,11a119.17,119.17,0,0,1-.82,17.76l3.91,9.42a89.12,89.12,0,0,1-9.1,14.05Z"/>
        <path  fill="#5891ba" d="M215.07,107.54A107.54,107.54,0,1,0,107.54,215.07,107.53,107.53,0,0,0,215.07,107.54Zm-10.48,0a97.06,97.06,0,1,0-97,97.05A97.05,97.05,0,0,0,204.59,107.54Z"/>
    </symbol>
    <symbol id="icon-eye" viewBox="0 0 511.999 511.999">
        <path d="M508.745,246.041c-4.574-6.257-113.557-153.206-252.748-153.206S7.818,239.784,3.249,246.035 c-4.332,5.936-4.332,13.987,0,19.923c4.569,6.257,113.557,153.206,252.748,153.206s248.174-146.95,252.748-153.201 C513.083,260.028,513.083,251.971,508.745,246.041z M255.997,385.406c-102.529,0-191.33-97.533-217.617-129.418 c26.253-31.913,114.868-129.395,217.617-129.395c102.524,0,191.319,97.516,217.617,129.418 C447.361,287.923,358.746,385.406,255.997,385.406z"/>
        <path d="M255.997,154.725c-55.842,0-101.275,45.433-101.275,101.275s45.433,101.275,101.275,101.275 s101.275-45.433,101.275-101.275S311.839,154.725,255.997,154.725z M255.997,323.516c-37.23,0-67.516-30.287-67.516-67.516 s30.287-67.516,67.516-67.516s67.516,30.287,67.516,67.516S293.227,323.516,255.997,323.516z"/>
    </symbol>
    <symbol id="icon-two-users" viewBox="0 0 25.96 25.96">
        <path  d="M11.896,17.15c-0.131-0.043-0.953-0.887-0.439-2.474H11.45c1.34-1.401,2.487-3.655,2.487-5.876 c0-3.412-2.359-5.201-4.957-5.201c-2.6,0-4.855,1.789-4.855,5.201c0,2.229,1.051,4.492,2.398,5.892 c0.525,1.398-0.414,2.384-0.611,2.458C3.192,18.148,0,19.97,0,21.767c0,0.485,0,0.191,0,0.674c0,2.449,4.677,3.006,9.006,3.006 c4.334,0,8.953-0.557,8.953-3.006c0-0.482,0-0.188,0-0.674C17.959,19.915,14.751,18.109,11.896,17.15z"/>
        <path  d="M20.259,12.651c-0.122-0.041-0.896-0.23-0.413-1.723H19.84c1.26-1.316,2.129-3.438,2.129-5.523 c0-3.209-2.01-4.891-4.452-4.891c-1.798,0-3.347,0.918-4.042,2.678c1.459,1.205,2.463,3.081,2.463,5.607 c0,2.697-1.264,5.158-2.586,6.746c2.106,0.797,5.397,2.4,6.339,4.85c3.318-0.184,6.269-0.873,6.269-2.771c0-0.453,0-0.177,0-0.633 C25.959,15.251,22.943,13.552,20.259,12.651z"/>
    </symbol>
    <symbol id="icon-arrow-up" viewBox="0 0 336 192">
        <path d="M312,192a23.91,23.91,0,0,1-17-7l-127-127L41,185A24,24,0,0,1,7,151L151,7A24,24,0,0,1,185,7h0L329,151a24,24,0,0,1-17,41Z"/>
    </symbol>
    <symbol id="icon-arrow-down" viewBox="0 0 336 192">
        <path d="M185,185,329,41A24,24,0,0,0,295,7l-127,127L41,7A24,24,0,0,0,7,41L151,185A24,24,0,0,0,185,185Z"/>
    </symbol>
    <symbol id="icon-user-placeholder" viewBox="0 0 512 512">
        <path d="M256,0C114.844,0,0,114.844,0,256s114.844,256,256,256s256-114.844,256-256S397.156,0,256,0z M256,74.667 c67.635,0,122.667,55.031,122.667,122.667S323.635,320,256,320s-122.667-55.031-122.667-122.667S188.365,74.667,256,74.667z M256,469.333c-69.707,0-131.52-33.755-170.473-85.615c42.676-20.534,103.621-42.385,170.473-42.385 c66.857,0,127.807,21.854,170.474,42.383C387.521,435.577,325.708,469.333,256,469.333z"/>
    </symbol>
    <symbol id="icon-crown" viewBox="0 0 115.18 58.85">
        <path d="M11,38.24A3.74,3.74,0,1,0,14.73,42,3.72,3.72,0,0,0,11,38.24Zm91.2,18.3h0A13.72,13.72,0,0,1,100.34,58a5.17,5.17,0,0,1-5.27.33l-1.33-.63c-.84-.39-1.68-.76-2.53-1.11h0A77.13,77.13,0,0,0,82,53.39a8.2,8.2,0,0,0,.44-2.63,8.29,8.29,0,0,0-16.57-.23c-2.72-.23-5.5-.35-8.32-.35-2.32,0-4.6.08-6.86.24a8.28,8.28,0,0,0-16.56.35A8.07,8.07,0,0,0,34.5,53q-3.87,1-7.44,2.31h0c-1.31.48-2.62,1-3.91,1.56a5.21,5.21,0,0,1-5.72-1q-.32-.28-.6-.6h0a7,7,0,0,1-1.17-1.69l-1.3-4.16A8.22,8.22,0,0,0,11,33.75a8.69,8.69,0,0,0-1.45.13L0,3.22,29.17,31.45,37.23,4l21,31.66L76.42,3.75l12.19,27.5L115.18,3h0l-6.44,29.74a8.19,8.19,0,0,0-2.44-.37,8.23,8.23,0,0,0-1,16.4l-1.06,4.86h0a8.12,8.12,0,0,1-2.07,2.9Zm4.15-19.67a3.74,3.74,0,1,0,3.77,3.74,3.72,3.72,0,0,0-3.77-3.74ZM51,16.54l7,10.55L64,16.5,56.88,4.21,51,16.55ZM20.78,17,27,23l2.31-7.89L20.48,3.5,20.78,17ZM94.39,0,85.27,12.54,90,23.21l8.42-8.94L94.39,0h0ZM74.2,47a3.73,3.73,0,0,0-3.77,3.74c0,.08,0,.18,0,.27q3.69.49,7.2,1.27A3.76,3.76,0,0,0,78,50.76,3.72,3.72,0,0,0,74.2,47ZM42.48,47a3.75,3.75,0,0,0-3.56,5c2.38-.48,4.82-.88,7.32-1.17v-.08A3.72,3.72,0,0,0,42.47,47h0Z"/>
    </symbol>
</svg>
