<?xml version="1.0" encoding="utf-8"?>
<svg xmlns="http://www.w3.org/2000/svg" xmlns:xlink="http://www.w3.org/1999/xlink">
    <symbol id="icon-handshake" viewBox="0 0 512 320">
        <path d="M501.33,21.33c-83.75,0-130.22,21.44-132.16,22.33a10.59,10.59,0,0,0-5.69,6.64,10.71,10.71,0,0,0,.63,7.67C348,51.86,325.49,43,303,32.91c-38.49-17.2-63.31-11.95-90.81,9.75H126.86c.46-3.41.83-6.67,1.1-9.75a10.64,10.64,0,0,0-3.29-8.66C106.39,6.93,33.28,1.32,11.31,0A10.66,10.66,0,0,0,0,10.66v192a10.67,10.67,0,0,0,10.67,10.67h64A10.66,10.66,0,0,0,84.8,206c.22-.67,1.11-3.41,2.5-7.79,2.43,2.51,5.11,5.31,7.89,8.21,9.51,9.94,19.35,20.23,26,25.77,39.73,33.26,87.47,69.17,97,75.42C226,312.74,242.9,320,256,320c10.52,0,18.6-2.41,24.21-7.12a33.23,33.23,0,0,0,24.26-.26,42,42,0,0,0,22.21-20.5,41.29,41.29,0,0,0,26.77-3.86c8.56-4.31,14.74-10.9,17.81-18.6a34.92,34.92,0,0,0,24.47-8.77,33.64,33.64,0,0,0,11.57-32.36l16.89-11.34c1.18,3.83,2.16,7.1,2.86,9.65a10.66,10.66,0,0,0,10.28,7.83h64A10.67,10.67,0,0,0,512,224V32A10.65,10.65,0,0,0,501.33,21.33ZM21.33,192V22.09c34.29,2.71,71.28,8.6,84.72,15.13C100.4,83.94,74.82,167,66.88,192Zm360.54,52.65c-4.06,3.48-9.54,4.68-12.74,2.83-7.95-6.37-41.77-41-62.74-62.86A10.67,10.67,0,1,0,291,199.38c4.94,5.16,44.82,46.72,60.81,61.3-1.23,4.62-5.73,7.39-7.91,8.48-6.79,3.43-13.88,2.86-16.57.41-.21-.19-.42-.38-.64-.56-12.78-10.22-44.89-44.33-52.14-52.23a10.68,10.68,0,1,0-15.72,14.45c.34.36,31.64,34.15,49.36,50a20.64,20.64,0,0,1-11.39,11.44c-3.27,1.23-8,2-12.25-1.9h0l-.32-.29c-15.21-12.82-46.33-46-52.41-52.46a10.67,10.67,0,0,0-15.6,14.57c7.22,7.73,28.74,30.55,44.88,45.76a38.88,38.88,0,0,1-5.09.3c-7.1,0-19.88-4.8-26.13-8.94-7.49-4.93-54.45-40-95-73.92-5.7-4.8-15.55-15.08-24.26-24.17-6.36-6.64-12.26-12.77-16.18-16.44,8.92-29.42,21.79-74.49,28.88-111.2h65.43c-14.57,14.66-34.2,44-29.1,65.58,2.19,9.22,8.68,16,18.32,19.22,24.17,8,46.23.34,62.66-21.46,6.78-1,10.47-2.58,16-5.08,2-.89,4.35-1.94,7.47-3.2,12.2,11.46,28.67,24.79,46,38.81C341.48,183.22,377,212,385,228.62,389,236.84,384.75,242.19,381.87,244.64Zm16-35.48c-14.71-19.66-44.95-44.12-74.32-67.88-19.37-15.66-37.67-30.46-49.34-42.13A10.69,10.69,0,0,0,263,96.65c-7.19,2.61-11.63,4.61-15.12,6.17-5.34,2.39-7.13,3.2-14.32,3.92a10.66,10.66,0,0,0-7.81,4.68c-15.08,22.55-30.7,20.63-41.13,17.13-3.33-1.11-3.92-2.54-4.24-3.91-2.24-9.36,9-31.16,23.57-45.74,34.67-34.68,52.54-43.37,90.3-26.49C330,68.39,365.82,81.48,377,85.46c12.52,30.44,29.44,77.76,40.39,110.61Zm92.81,4.17H445.31C435.2,180.39,405.33,94.5,388.67,59c16.28-5.52,51.25-15,102-16.21Z"/>
    </symbol>
    <symbol id="icon-upgrade" viewBox="0 0 13 20">
        <path d="M12.467 19.5L6.5 14.476.533 19.5l-.037-3.064L6.5 11.375l6.07 5.128z"/>
        <path opacity=".5" d="M12.467 14L6.5 8.976.533 14l-.037-3.064L6.5 5.875l6.07 5.128z"/>
        <path d="M12.467 8.5L6.5 3.476.533 8.5.496 5.436 6.5.375l6.07 5.128z"/>
    </symbol>
    <symbol id="icon-eye" viewBox="0 0 24 24">
        <path d="M15 12c0 1.654-1.346 3-3 3s-3-1.346-3-3 1.346-3 3-3 3 1.346 3 3zm9-.449s-4.252 8.449-11.985 8.449c-7.18 0-12.015-8.449-12.015-8.449s4.446-7.551 12.015-7.551c7.694 0 11.985 7.551 11.985 7.551zm-7 .449c0-2.757-2.243-5-5-5s-5 2.243-5 5 2.243 5 5 5 5-2.243 5-5z"/>
    </symbol>
    <symbol id="icon-2-users" viewBox="0 0 24 24">
        <path d="m7.5 13a4.5 4.5 0 1 1 4.5-4.5 4.505 4.505 0 0 1 -4.5 4.5zm7.5 7a5.006 5.006 0 0 0 -5-5h-5a5.006 5.006 0 0 0 -5 5v4h15zm2.5-11a4.5 4.5 0 1 1 4.5-4.5 4.505 4.505 0 0 1 -4.5 4.5zm1.5 2h-5a4.793 4.793 0 0 0 -.524.053 6.514 6.514 0 0 1 -1.576 2.216 7.008 7.008 0 0 1 5.1 6.731h7v-4a5.006 5.006 0 0 0 -5-5z"/>
    </symbol>
    <symbol id="icon-wallet" viewBox="0 0 25 24">
        <path d="M24.2188 12.0006H23.4375V7.94241C23.4375 7.49438 23.0875 7.13076 22.6562 7.13076H21.875V4.69583C21.875 4.24781 21.525 3.88419 21.0938 3.88419H18.4516L17.1047 1.08565C16.9109 0.683071 16.4422 0.522366 16.0562 0.72203L14.2562 1.65867L13.9797 1.08565C13.7859 0.684695 13.3172 0.522366 12.9312 0.723653L6.84688 3.88419H2.34375C1.05156 3.88419 0 4.97666 0 6.31912V20.9287C0 22.2712 1.05156 23.3636 2.34375 23.3636H22.6562C23.0875 23.3636 23.4375 23 23.4375 22.552V18.4938H24.2188C24.65 18.4938 25 18.1301 25 17.6821V12.8123C25 12.3642 24.65 12.0006 24.2188 12.0006ZM20.3125 5.50748V7.13076H20.0141L19.2328 5.50748H20.3125ZM16.0562 2.53849L18.2672 7.13076H16.8891L14.9547 3.10988L16.0562 2.53849ZM12.9312 2.53849L15.1422 7.13076H4.09062L12.9312 2.53849ZM2.34375 5.50748H3.72187L1.625 6.5967C1.59375 6.50742 1.5625 6.41652 1.5625 6.31912C1.5625 5.87109 1.9125 5.50748 2.34375 5.50748ZM21.875 21.7403H2.34375C1.9125 21.7403 1.5625 21.3767 1.5625 20.9287V8.59821C1.81875 8.69399 2.08125 8.75405 2.34375 8.75405H21.875V12.0006H18.75C17.0266 12.0006 15.625 13.4567 15.625 15.2472C15.625 17.0377 17.0266 18.4938 18.75 18.4938H21.875V21.7403ZM23.4375 16.8705H18.75C17.8891 16.8705 17.1875 16.1416 17.1875 15.2472C17.1875 14.3528 17.8891 13.6239 18.75 13.6239H23.4375V16.8705Z"/>
        <path d="M24.2188 12.0006H23.4375V7.94241C23.4375 7.49438 23.0875 7.13076 22.6562 7.13076H21.875V4.69583C21.875 4.24781 21.525 3.88419 21.0938 3.88419H18.4516L17.1047 1.08565C16.9109 0.683071 16.4422 0.522366 16.0562 0.72203L14.2562 1.65867L13.9797 1.08565C13.7859 0.684695 13.3172 0.522366 12.9312 0.723653L6.84688 3.88419H2.34375C1.05156 3.88419 0 4.97666 0 6.31912V20.9287C0 22.2712 1.05156 23.3636 2.34375 23.3636H22.6562C23.0875 23.3636 23.4375 23 23.4375 22.552V18.4938H24.2188C24.65 18.4938 25 18.1301 25 17.6821V12.8123C25 12.3642 24.65 12.0006 24.2188 12.0006ZM20.3125 5.50748V7.13076H20.0141L19.2328 5.50748H20.3125ZM16.0562 2.53849L18.2672 7.13076H16.8891L14.9547 3.10988L16.0562 2.53849ZM12.9312 2.53849L15.1422 7.13076H4.09062L12.9312 2.53849ZM2.34375 5.50748H3.72187L1.625 6.5967C1.59375 6.50742 1.5625 6.41652 1.5625 6.31912C1.5625 5.87109 1.9125 5.50748 2.34375 5.50748ZM21.875 21.7403H2.34375C1.9125 21.7403 1.5625 21.3767 1.5625 20.9287V8.59821C1.81875 8.69399 2.08125 8.75405 2.34375 8.75405H21.875V12.0006H18.75C17.0266 12.0006 15.625 13.4567 15.625 15.2472C15.625 17.0377 17.0266 18.4938 18.75 18.4938H21.875V21.7403ZM23.4375 16.8705H18.75C17.8891 16.8705 17.1875 16.1416 17.1875 15.2472C17.1875 14.3528 17.8891 13.6239 18.75 13.6239H23.4375V16.8705Z"/>
    </symbol>
    <symbol id="icon-change" viewBox="0 0 122.88 101.8">
        <path d="M13.56,48.8c-.7-10.22-.24-18.51,3.25-24.34s10.13-9.25,21.58-9.25h2v-5h0c0-2,.36-3.21,1.25-3.7s2.14-.09,3.66,1.36L57.26,19.24A3.44,3.44,0,0,1,58.61,22a4,4,0,0,1-1.48,2.52L45.37,35.78c-1.43,1.44-2.63,1.87-3.61,1.38s-1.35-1.69-1.33-3.59h0V27.49c-11.61-.44-14.11,4.35-14.51,10.72-.12,2-.06,4.23,0,6.46,0,1.44.08,2.89.08,4.12A1.18,1.18,0,0,1,24.83,50H14.73a1.17,1.17,0,0,1-1.17-1.17ZM76.42,0h40.7a5.77,5.77,0,0,1,5.76,5.76V37.4a5.74,5.74,0,0,1-1.69,4.07,3.9,3.9,0,0,1-.38.33,5.68,5.68,0,0,1-3.69,1.36H76.42a5.75,5.75,0,0,1-5.75-5.76V5.76A5.73,5.73,0,0,1,72.35,1.7h0A5.78,5.78,0,0,1,76.42,0ZM5.76,58.64h40.7a5.73,5.73,0,0,1,4,1.69h0a5.75,5.75,0,0,1,1.68,4.06V96a5.74,5.74,0,0,1-1.68,4.07,3.9,3.9,0,0,1-.38.33,5.72,5.72,0,0,1-3.69,1.36H5.76A5.77,5.77,0,0,1,0,96V64.4a5.72,5.72,0,0,1,1.7-4.06h0a5.74,5.74,0,0,1,4.07-1.69Zm97.61-3.51c.7,10.23.24,18.52-3.25,24.35S90,88.72,78.54,88.72H76.49v5h0c0,2-.35,3.21-1.24,3.7s-2.14.09-3.66-1.36L59.67,84.69A3.42,3.42,0,0,1,58.32,82a4.06,4.06,0,0,1,1.48-2.53L71.56,68.16c1.43-1.44,2.63-1.88,3.61-1.38s1.35,1.68,1.32,3.59h0v6.08c11.61.44,14.1-4.35,14.5-10.73.13-2,.07-4.22,0-6.46,0-1.43-.08-2.89-.08-4.12A1.17,1.17,0,0,1,92.09,54h10.1a1.18,1.18,0,0,1,1.18,1.17Z"/>
    </symbol>
    <symbol id="icon-contract" viewBox="0 0 511.82 512">
        <path d="M498.64,223.16s0,0,0,0a45.06,45.06,0,0,0-63.63,0L287.61,369.89a15,15,0,0,0-4,7.14l-13.21,55.5a15,15,0,0,0,18,18.07l55.63-13.08a15,15,0,0,0,7.18-4l147.4-146.73A45,45,0,0,0,498.64,223.16ZM333.05,409.3l-27.84,6.54,6.61-27.74,5.55-5.55a40.24,40.24,0,0,1,21.21,21.21ZM477.42,265.58l-10.6,10.6L445.61,255l10.6-10.6a15,15,0,0,1,21.21,0h0A15,15,0,0,1,477.42,265.58Z"/>
        <path d="M254.44,370.08a44.78,44.78,0,0,1,12-21.4L414.89,200.19c1.58-1.58,3.42-2.78,5.11-4.2V148.42a44.72,44.72,0,0,0-13.18-31.81L364.39,73.18A44.72,44.72,0,0,0,332.58,60H75A15,15,0,0,0,60,75V497a15,15,0,0,0,15,15H405a15,15,0,0,0,15-15V407.19l-47.55,47.55a44.91,44.91,0,0,1-21.49,12L295.3,479.81a45,45,0,0,1-54.07-54.22ZM330,90h2.58c3.94,0,7.81,2.6,10.6,5.39l42.43,42.43a15.12,15.12,0,0,1,4.39,10.6V151H330ZM135,121H255a15,15,0,0,1,0,30H135a15,15,0,0,1,0-30Zm-30,60H225a15,15,0,0,1,0,30H105a15,15,0,0,1,0-30ZM235.61,356.61l-90,90a15,15,0,0,1-21.21,0l-30-30a15,15,0,1,1,21.21-21.22L135,414.79l79.4-79.4a15,15,0,0,1,21.21,21.22ZM105,271a15,15,0,0,1,0-30H315a15,15,0,0,1,0,30Z"/>
        <path d="M345,0H15A15,15,0,0,0,0,15V436a15,15,0,0,0,15,15H30V75A45,45,0,0,1,75,30H360V15A15,15,0,0,0,345,0Z"/>
    </symbol>
    <symbol id="icon-case" viewBox="0 0 20.34 22.98">
        <path d="M18.8,5.17a.54.54,0,0,0-.2-.4L10.5.07a.49.49,0,0,0-.5,0L1.8,4.78a.52.52,0,0,0-.2.39.5.5,0,0,0,.2.4l8.1,4.7a.35.35,0,0,1,.2.1s.2,0,.2-.1l8.1-4.7C18.7,5.48,18.8,5.28,18.8,5.17Z"/>
        <path d="M8.8,12.67.7,8A.41.41,0,0,0,.2,8a.77.77,0,0,0-.2.39v9.4a.5.5,0,0,0,.2.4l8.1,4.7a.35.35,0,0,1,.2.1s.2,0,.2-.1a.52.52,0,0,0,.2-.4v-9.4C9.1,12.87,9,12.78,8.8,12.67Z"/>
        <path d="M20.2,8a.41.41,0,0,0-.5,0l-8.1,4.69a.54.54,0,0,0-.2.4v9.41a.5.5,0,0,0,.2.39.34.34,0,0,1,.2.11s.2,0,.2-.11l8.1-4.69a.52.52,0,0,0,.2-.4V8.37C20.4,8.28,20.3,8.08,20.2,8Z"/>
    </symbol>
    <symbol id="icon-coins" viewBox="0 0 402 357">
        <path d="M116.8,207A250.13,250.13,0,0,0,149.35,205V91.76a250,250,0,0,0-32.55-2.09C52.29,89.67,0,113.37,0,142.61V154.1C0,183.34,52.29,207,116.8,207Z"/>
        <path d="M116.8,266.15a250.13,250.13,0,0,0,32.55-2.09V230.88A250.09,250.09,0,0,1,116.8,233c-56.31,0-103.3-18.06-114.34-42.1A25.78,25.78,0,0,0,0,201.72v11.49C0,242.45,52.29,266.15,116.8,266.15Z"/>
        <path d="M149.35,292.57V290a250.09,250.09,0,0,1-32.55,2.1C60.49,292.09,13.5,274,2.46,250A25.78,25.78,0,0,0,0,260.83v11.48c0,29.25,52.29,52.95,116.8,52.95a248.41,248.41,0,0,0,36.91-2.7,41.7,41.7,0,0,1-4.36-18.51Z"/>
        <path d="M285.2,0C220.7,0,168.41,23.7,168.41,52.94V64.43c0,29.24,52.29,52.94,116.79,52.94S402,93.67,402,64.43V52.94C402,23.7,349.71,0,285.2,0Z"/>
        <path d="M285.2,143.31c-56.3,0-103.3-18.06-114.34-42.1a25.77,25.77,0,0,0-2.45,10.84v11.49c0,29.24,52.29,52.94,116.79,52.94S402,152.78,402,123.54V112.05a25.78,25.78,0,0,0-2.46-10.84C388.5,125.25,341.51,143.31,285.2,143.31Z"/>
        <path d="M285.2,202.42c-56.3,0-103.3-18.06-114.34-42.1a25.77,25.77,0,0,0-2.45,10.84v11.49c0,29.24,52.29,52.94,116.79,52.94S402,211.89,402,182.65V171.16a25.78,25.78,0,0,0-2.46-10.84C388.5,184.36,341.51,202.42,285.2,202.42Z"/>
        <path d="M285.2,264.72c-56.3,0-103.3-18.06-114.34-42.1a25.77,25.77,0,0,0-2.45,10.84V245c0,29.24,52.29,52.94,116.79,52.94S402,274.19,402,245V233.46a25.78,25.78,0,0,0-2.46-10.84C388.5,246.66,341.51,264.72,285.2,264.72Z"/>
        <path d="M285.2,323.83c-56.3,0-103.3-18.06-114.34-42.1a25.77,25.77,0,0,0-2.45,10.84v11.49C168.41,333.3,220.7,357,285.2,357S402,333.3,402,304.06V292.57a25.78,25.78,0,0,0-2.46-10.84C388.5,305.77,341.51,323.83,285.2,323.83Z"/>
    </symbol>
    <symbol viewBox="0 0 399.9 399.9" id="icon-shield">
	<path fill="#79769A" d="M200.9,399.9c-0.6,0-1.2,0-1.8,0c-2.1-1.1-4.2-2.2-6.3-3.2c-21.8-10.5-43-22.3-62.9-36.2
		C88,331.3,58,293.5,43.9,243.8c-9.5-33.7-12.5-68.3-14.3-103.1c-1.9-38.2-1.1-76.4-1.3-114.6c0-4.1,1.1-5.3,5.2-5.2
		c25.3,0.3,50.5-1.6,75.5-5.7c25-4.2,50-8.7,75.1-12.9c6-1,12-2.9,18.1-2c13.2,1.9,26.5,3.9,39.6,6.4c41.5,7.8,83.1,15,125.6,14.2
		c3.3-0.1,4.3,0.9,4.2,4.3c-0.1,25,0.1,50-0.1,75c-0.4,35.1-1.8,70.1-7.1,104.9c-4.6,30.3-12.9,59.5-28.4,86.2
		C317.1,323.6,290,347.8,259,368C240.4,380.1,220.7,390.1,200.9,399.9z M342.6,108.6c0-18.6-0.1-37.2,0.1-55.8
		c0-2.8-0.9-3.4-3.5-3.6c-9.3-0.5-18.7-1.3-28-2.2c-29.4-3.1-58.4-9.2-87.5-14.1c-9.7-1.6-19.4-4.7-29.5-3c-9.7,1.7-19.3,3.2-29,5
		c-34.8,6.3-69.6,12.8-105,14.4c-3.1,0.1-2.8,1.8-2.8,3.8c0,15-0.2,30,0.1,45.1c0.7,39.7,1.9,79.4,9.8,118.5
		C74.4,252.2,89,284,114.9,310c24.1,24.2,52.9,41.6,83.1,56.9c1.8,0.9,3.1,0.4,4.6-0.3c6.7-3.5,13.4-7,20.1-10.6
		c19.9-11.1,38.6-23.9,55.6-39.2c32.5-29.5,49.3-67,56.4-109.5C340.1,174.5,341.6,141.6,342.6,108.6z"/>
            <path fill="#79769A" d="M309.1,120.1c-1.5,29.4-3.3,58.8-8.6,87.9c-7.8,43.7-30.7,77.3-67.2,102c-9.9,6.7-19.9,13-30.4,18.7
		c-1.5,0.9-2.9,1.8-4.9,0.6c-23.7-13.1-46-27.9-64.4-48.1c-19.4-21.4-29.4-47.1-34.6-75.1c-5.6-30.2-7.1-60.8-7.9-91.5
		c-0.3-10.3-0.2-20.5-0.4-30.8c0-2.1,0.1-3.5,2.9-3.8c33.9-3.7,67.2-10.9,100.8-16.5c9.5-1.6,18.6,1.3,27.8,2.9
		c27.5,4.8,54.9,10.3,82.8,13.3c3.6,0.4,4.3,1.7,4.2,5C309,96.6,309.1,108.4,309.1,120.1z M244.7,255.4c6.2-0.1,9.8-4.8,8.4-11
		c-3.1-13.9-6.2-27.8-9.5-41.7c-0.6-2.7-0.2-4.3,1.9-6.1c10.6-9.1,21-18.4,31.6-27.6c3.2-2.7,5.1-5.9,3.6-10.2
		c-1.4-4.2-4.7-5.8-8.9-6.2c-13.8-1.2-27.5-2.5-41.3-3.6c-2.9-0.2-4.5-1.2-5.6-3.9c-5.2-12.6-10.7-25.1-16-37.7
		c-1.7-4.1-4-7.4-9-7.4c-5,0-7.2,3.3-8.9,7.4c-5.3,12.6-10.8,25.1-16,37.7c-1,2.5-2.4,3.6-5.2,3.9c-13.5,1.1-26.9,2.5-40.4,3.5
		c-4.6,0.4-8.6,1.4-10.2,6.3c-1.6,4.7,1,7.9,4.3,10.8c10.1,8.8,20,17.7,30.3,26.4c2.7,2.3,3.2,4.3,2.4,7.6
		c-3.2,13.1-6,26.4-9.1,39.5c-1,4.3-0.8,8.1,2.9,10.8c3.7,2.7,7.5,1.8,11.2-0.5c12-7.2,24-14.3,35.9-21.6c2.1-1.3,3.5-1.3,5.6,0
		c11.9,7.3,23.9,14.4,35.9,21.6C240.6,254.5,242.5,255.7,244.7,255.4z"/>
</symbol>
    <symbol id="icon-steam" viewBox="0 0 40 24">
        <path d="M32.15125,0.49125 C28.32375,0.49125 25.21,3.60375 25.21,7.43125 C25.21,8.07125 25.325,8.68 25.48875,9.26875 L22.7075,13.6575 C22.33875,13.5725 21.95875,13.51625 21.56625,13.51625 C20.3375,13.51625 19.22375,13.975 18.3475,14.70875 L10.055,11.07 C10.06125,10.97125 10.08375,10.88 10.08375,10.78125 C10.08375,8.00125 7.82,5.74 5.04125,5.74 C2.2625,5.74 0,8 0,10.78125 C0,13.5625 2.2625,15.82375 5.04125,15.82375 C6.07625,15.82375 7.03875,15.51125 7.83875,14.9725 L16.54625,18.795 C16.67375,21.46375 18.865,23.6025 21.56625,23.6025 C24.34625,23.6025 26.6075,21.34 26.6075,18.56 C26.6075,18.35125 26.5725,18.15125 26.545,17.94875 L31.215,14.27875 C31.5225,14.3225 31.83,14.37375 32.15,14.37375 C35.9775,14.37375 39.09125,11.26 39.09125,7.4325 C39.09125,3.6025 35.9775,0.49125 32.15125,0.49125 Z M2.6775,10.78125 C2.6775,9.47875 3.73875,8.4175 5.04125,8.4175 C6.345,8.4175 7.40625,9.4775 7.40625,10.78125 C7.40625,12.085 6.345,13.145 5.04125,13.145 C3.73875,13.145 2.6775,12.085 2.6775,10.78125 Z M21.56625,21.00375 C20.21625,21.00375 19.11875,19.9075 19.11875,18.5575 C19.11875,17.20875 20.21625,16.10875 21.56625,16.10875 C22.915,16.10875 24.0125,17.2075 24.0125,18.5575 C24.0125,19.9075 22.915,21.00375 21.56625,21.00375 Z M32.15125,11.39625 C29.96375,11.39625 28.18625,9.6175 28.18625,7.43125 C28.18625,5.245 29.96375,3.46625 32.15125,3.46625 C34.33875,3.46625 36.11625,5.245 36.11625,7.43125 C36.11625,9.6175 34.33875,11.39625 32.15125,11.39625 Z"/>
    </symbol>
    <symbol id="icon-steam-circle" viewBox="0 0 496 512">
        <path d="M496 256c0 137-111.2 248-248.4 248-113.8 0-209.6-76.3-239-180.4l95.2 39.3c6.4 32.1 34.9 56.4 68.9 56.4 39.2 0 71.9-32.4 70.2-73.5l84.5-60.2c52.1 1.3 95.8-40.9 95.8-93.5 0-51.6-42-93.5-93.7-93.5s-93.7 42-93.7 93.5v1.2L176.6 279c-15.5-.9-30.7 3.4-43.5 12.1L0 236.1C10.2 108.4 117.1 8 247.6 8 384.8 8 496 119 496 256zM155.7 384.3l-30.5-12.6a52.79 52.79 0 0 0 27.2 25.8c26.9 11.2 57.8-1.6 69-28.4 5.4-13 5.5-27.3.1-40.3-5.4-13-15.5-23.2-28.5-28.6-12.9-5.4-26.7-5.2-38.9-.6l31.5 13c19.8 8.2 29.2 30.9 20.9 50.7-8.3 19.9-31 29.2-50.8 21zm173.8-129.9c-34.4 0-62.4-28-62.4-62.3s28-62.3 62.4-62.3 62.4 28 62.4 62.3-27.9 62.3-62.4 62.3zm.1-15.6c25.9 0 46.9-21 46.9-46.8 0-25.9-21-46.8-46.9-46.8s-46.9 21-46.9 46.8c.1 25.8 21.1 46.8 46.9 46.8z"/>
    </symbol>
    <symbol id="icon-question" viewBox="0 0 439 439">
        <path d="M409.133,109.203c-19.608-33.592-46.205-60.189-79.798-79.796C295.736,9.801,259.058,0,219.273,0 c-39.781,0-76.47,9.801-110.063,29.407c-33.595,19.604-60.192,46.201-79.8,79.796C9.801,142.8,0,179.489,0,219.267 c0,39.78,9.804,76.463,29.407,110.062c19.607,33.592,46.204,60.189,79.799,79.798c33.597,19.605,70.283,29.407,110.063,29.407 s76.47-9.802,110.065-29.407c33.593-19.602,60.189-46.206,79.795-79.798c19.603-33.596,29.403-70.284,29.403-110.062 C438.533,179.485,428.732,142.795,409.133,109.203z M255.82,356.309c0,2.662-0.862,4.853-2.573,6.563 c-1.704,1.711-3.895,2.567-6.557,2.567h-54.823c-2.664,0-4.854-0.856-6.567-2.567c-1.714-1.711-2.57-3.901-2.57-6.563v-54.823 c0-2.662,0.855-4.853,2.57-6.563c1.713-1.708,3.903-2.563,6.567-2.563h54.823c2.662,0,4.853,0.855,6.557,2.563 c1.711,1.711,2.573,3.901,2.573,6.563V356.309z M325.338,187.574c-2.382,7.043-5.044,12.804-7.994,17.275 c-2.949,4.473-7.187,9.042-12.709,13.703c-5.51,4.663-9.891,7.996-13.135,9.998c-3.23,1.995-7.898,4.713-13.982,8.135 c-6.283,3.613-11.465,8.326-15.555,14.134c-4.093,5.804-6.139,10.513-6.139,14.126c0,2.67-0.862,4.859-2.574,6.571 c-1.707,1.711-3.897,2.566-6.56,2.566h-54.82c-2.664,0-4.854-0.855-6.567-2.566c-1.715-1.712-2.568-3.901-2.568-6.571v-10.279 c0-12.752,4.993-24.701,14.987-35.832c9.994-11.136,20.986-19.368,32.979-24.698c9.13-4.186,15.604-8.47,19.41-12.847 c3.812-4.377,5.715-10.188,5.715-17.417c0-6.283-3.572-11.897-10.711-16.849c-7.139-4.947-15.27-7.421-24.409-7.421 c-9.9,0-18.082,2.285-24.555,6.855c-6.283,4.565-14.465,13.322-24.554,26.263c-1.713,2.286-4.093,3.431-7.139,3.431 c-2.284,0-4.093-0.57-5.424-1.709L121.35,145.89c-4.377-3.427-5.138-7.422-2.286-11.991 c24.366-40.542,59.672-60.813,105.922-60.813c16.563,0,32.744,3.903,48.541,11.708c15.796,7.801,28.979,18.842,39.546,33.119 c10.554,14.272,15.845,29.787,15.845,46.537C328.904,172.824,327.71,180.529,325.338,187.574z"/>
    </symbol>
    <symbol id="icon-gift" viewBox="0 0 56 54">
        <path d="m21.219 28.555-4.443-4.032 6.72-7.405 4.443 4.032zm-5.992-6.788c-.5893722-.53464-.9421912-1.2815308-.9808247-2.0763308-.0386335-.7948001.2400838-1.5723884.7748247-2.1616692l1.344-1.481c.53464-.5893722 1.2815308-.9421912 2.0763308-.9808247.7948001-.0386335 1.5723884.2400838 2.1616692.7748247l.74.672-5.377 5.924zm-2.966-1.906c.0171855.205621.0469074.4100011.089.612-1.5008438.24587-3.0402173.082467-4.456-.473 1.40580627-.499264 2.9322887-.5478514 4.367-.139zm6.778-6.761c-.2078535-.0229109-.4168998-.033263-.626-.031-.5385946-1.388-.6332806-2.9089152-.271-4.353.6922937 1.3525062 1.0024312 2.8682732.897 4.384zm11.849-4.131c.3709546-.40876495 1.0029579-.43964896 1.412-.069l3.7 3.363-6.72 7.405-4.44-4.031 3.36-3.7v-.005zm-6.145-8.275.825.749c.1963576.17843297.4555761.27151896.7205892.25876532s.514095-.13030136.6924108-.32676532l.54-.6c.2686797-.29777373.6892754-.40621291 1.0684371-.27546749s.6435258.47537764.6715629.87546749c.155 2.728-.162 6.264-2.241 8.84-.0172487-1.51795193-.2347943-3.02698594-.647-4.488-.3375238-1.1975933-1.1886765-2.18389035-2.324-2.693-.3658007-.16380441-.741149-.30539486-1.124-.424l.153-1.3c.0462675-.3705202.2951105-.68439846.6453094-.81396155.350199-.1295631.7434101-.05322555 1.0196906.19796155zm-9.194 4.352c.1367227-.16309959.317637-.28324607.521-.346 2.3249039-.81680113 4.867716-.75885644 7.153.163.5962734.26477409 1.0442732.78054167 1.223 1.408.6739195 2.14879213.7362468 4.4427845.18 6.625l-1.939 2.136-.74-.672c-.292127-.2590621-.6136616-.4829281-.958-.667.2659469-2.5483575-.3865402-5.10795062-1.84-7.218-.2431732-.38232601-.6747282-.60250716-1.127-.575-.4962117.02620144-.942442.31040765-1.176.749-1.0966479 2.13653698-1.2383224 4.6372744-.39 6.884-.4963495.2416327-.9488978.5643986-1.339.955-.99-1.818-2.491-5.769.432-9.442zm-11.849 13.287c.04196411-.2083448.14338501-.400072.292-.552 3.374-3.265 7.452-2.153 9.362-1.344-.3502424.427895-.6266986.9111863-.818 1.43-2.3215164-.6340307-4.80310113-.2515773-6.826 1.052-.40506006.2783651-.64058313.7437587-.625 1.235.01946943.4470535.27080754.8515448.663 1.067 1.62649195.8763732 3.43967112 1.3493019 5.287 1.379.7034983.0002422 1.404718-.0799452 2.09-.239.2164143.3251325.4705114.6235371.757.889l.74.672-1.938 2.136c-2.1177317.7662282-4.40727953.9262299-6.611.462-.64190302-.1170962-1.19870978-.5130884-1.52-1.081-1.13939689-2.1860028-1.44266904-4.7124412-.853-7.106zm-2.024 13.446c-.40141507.0123651-.77128426-.2166121-.93919303-.5814321-.16790877-.3648199-.10127785-.7946968.16919303-1.0915679l.537-.592c.17874322-.1964065.2720217-.4558451.2592653-.7211033-.01275641-.2652582-.13049994-.5145486-.3272653-.6928967l-.825-.749c-.27691619-.2516483-.39017488-.636838-.29354035-.9983227s.38699234-.6387769.75254035-.7186773l1.28-.278c.15471056.3698896.33204598.7299038.531 1.078.61555995 1.0792807 1.67739896 1.8306234 2.9 2.052 1.0302909.1835551 2.07449389.2779048 3.121.282.456 0 .932-.029 1.413-.076-2.354 2.316-5.844 2.976-8.578 3.087zm11.478 5.662-3.7-3.36c-.19660471-.1781783-.31433817-.427187-.3272795-.6922029s.07997051-.5243109.2582795-.7207971l2.684-2.956v-.005l3.362-3.707 4.443 4.033zm3.846 15.559v-16.82l7.424-8.18h2.576c.5522847 0 1 .4477153 1 1v24c0 .5522847-.4477153 1-1 1h-9c-.5522847 0-1-.4477153-1-1zm13 0v-24c0-.5522847.4477153-1 1-1h4c.5522847 0 1 .4477153 1 1v24c0 .5522847-.4477153 1-1 1h-4c-.5522847 0-1-.4477153-1-1zm19 0c0 .5522847-.4477153 1-1 1h-9c-.5522847 0-1-.4477153-1-1v-24c0-.5522847.4477153-1 1-1h9c.5522847 0 1 .4477153 1 1z"/>
        <path d="m46 34c.5522847 0 1-.4477153 1-1v-2c0-.5522847-.4477153-1-1-1s-1 .4477153-1 1v2c0 .5522847.4477153 1 1 1z"/>
        <path d="m46 52c.5522847 0 1-.4477153 1-1v-14c0-.5522847-.4477153-1-1-1s-1 .4477153-1 1v14c0 .5522847.4477153 1 1 1z"/>
        <path d="m20 36c-.5522847 0-1 .4477153-1 1v14c0 .5522847.4477153 1 1 1s1-.4477153 1-1v-14c0-.5522847-.4477153-1-1-1z"/>
        <path d="m37.707 19.293c-.3923789-.3789722-1.0160848-.3735524-1.4018186.0121814s-.3911536 1.0094397-.0121814 1.4018186l.293.293-.293.293c-.2599566.2510745-.3642126.6228779-.2726972.9725073.0915155.3496295.3645604.6226744.7141899.7141899.3496294.0915154.7214328-.0127406.9725073-.2726972l.293-.293.293.293c.3923789.3789722 1.0160848.3735524 1.4018186-.0121814s.3911536-1.0094397.0121814-1.4018186l-.293-.293.293-.293c.3789722-.3923789.3735524-1.0160848-.0121814-1.4018186s-1.0094397-.3911536-1.4018186-.0121814l-.293.293z"/>
        <path d="m50.707 18.293c-.3904999-.3903819-1.0235001-.3903819-1.414 0l-.293.293-.293-.293c-.3923789-.3789722-1.0160848-.3735524-1.4018186.0121814s-.3911536 1.0094397-.0121814 1.4018186l.293.293-.293.293c-.2599566.2510745-.3642126.6228779-.2726972.9725073.0915155.3496295.3645604.6226744.7141899.7141899.3496294.0915154.7214328-.0127406.9725073-.2726972l.293-.293.293.293c.3923789.3789722 1.0160848.3735524 1.4018186-.0121814s.3911536-1.0094397.0121814-1.4018186l-.293-.293.293-.293c.3903819-.3904999.3903819-1.0235001 0-1.414z"/>
        <path d="m55.414 12 .293-.293c.3789722-.3923789.3735524-1.0160848-.0121814-1.4018186-.3857338-.38573377-1.0094397-.39115361-1.4018186-.0121814l-.293.293-.293-.293c-.3923789-.37897221-1.0160848-.37355237-1.4018186.0121814-.3857338.3857338-.3911536 1.0094397-.0121814 1.4018186l.293.293-.293.293c-.2599566.2510745-.3642126.6228779-.2726972.9725073.0915155.3496295.3645604.6226744.7141899.7141899.3496294.0915154.7214328-.0127406.9725073-.2726972l.293-.293.293.293c.3923789.3789722 1.0160848.3735524 1.4018186-.0121814s.3911536-1.0094397.0121814-1.4018186z"/>
        <path d="m42.293 15.707c.3904999.3903819 1.0235001.3903819 1.414 0l.293-.293.293.293c.3923789.3789722 1.0160848.3735524 1.4018186-.0121814s.3911536-1.0094397.0121814-1.4018186l-.293-.293.293-.293c.3789722-.3923789.3735524-1.0160848-.0121814-1.4018186s-1.0094397-.3911536-1.4018186-.0121814l-.293.293-.293-.293c-.3923789-.3789722-1.0160848-.3735524-1.4018186.0121814s-.3911536 1.0094397-.0121814 1.4018186l.293.293-.293.293c-.3903819.3904999-.3903819 1.0235001 0 1.414z"/>
        <path d="m46.293 7.707c.3904999.39038194 1.0235001.39038194 1.414 0l.293-.293.293.293c.3923789.37897221 1.0160848.37355237 1.4018186-.01218142.3857338-.3857338.3911536-1.00943969.0121814-1.40181858l-.293-.293.293-.293c.3789722-.39237889.3735524-1.01608478-.0121814-1.40181858-.3857338-.38573379-1.0094397-.39115363-1.4018186-.01218142l-.293.293-.293-.293c-.3923789-.37897221-1.0160848-.37355237-1.4018186.01218142-.3857338.3857338-.3911536 1.00943969-.0121814 1.40181858l.293.293-.293.293c-.3903819.39049985-.3903819 1.02350015 0 1.414z"/>
    </symbol>
    <symbol id="icon-coinflip" viewBox="0 0 3719 3719">
        <path opacity=".4" d="M572 572c714,-714 1818,-767 2466,-119 1930,1930 -657,4513 -2585,2585 -648,-648 -595,-1752 119,-2466z"/>
        <path d="M534 2957c622,622 1669,584 2338,-85 669,-669 707,-1716 85,-2338 -598,-598 -1625,-540 -2294,129 -669,669 -727,1696 -129,2294zm316 -113l137 -137c10,-10 26,-12 37,-3 32,23 65,45 99,65 12,7 16,21 11,34l-76 177c-3,8 -9,13 -17,16 -8,3 -16,2 -23,-2 -58,-32 -113,-69 -166,-109 -6,-5 -10,-12 -10,-20 0,-8 3,-16 9,-22zm1800 -2190l-137 137c-10,10 -25,12 -35,5 -30,-21 -61,-41 -93,-59 -11,-6 -15,-20 -9,-33l80 -173c4,-8 9,-13 17,-16 8,-3 15,-3 22,1 54,29 106,62 155,98 6,5 9,11 9,19 0,8 -3,15 -9,21zm-447 -215l-80 173c-6,13 -20,20 -32,18 -37,-7 -75,-12 -113,-16 -13,-1 -22,-12 -21,-25l11 -183c0,-8 4,-15 10,-21 6,-6 14,-8 22,-8 64,4 127,13 188,26 8,2 13,6 16,13 3,7 3,15 -1,22zm-517 -16l-11 183c-1,13 -11,25 -25,28 -39,8 -77,18 -116,30 -13,4 -26,-2 -30,-14l-60 -165c-3,-7 -2,-15 2,-22 4,-7 10,-13 18,-15 64,-21 128,-37 193,-49 8,-1 15,0 21,5 6,5 8,12 8,20zm-507 185l60 165c4,12 -1,26 -13,34 -35,22 -68,45 -101,71 -11,9 -26,9 -35,0l-121 -121c-5,-5 -8,-12 -7,-20 1,-8 5,-15 12,-20 54,-43 110,-82 168,-118 7,-4 15,-6 22,-3 7,2 13,7 15,14zm-421 359l121 121c9,9 9,24 0,35 -25,33 -49,66 -71,101 -8,12 -22,17 -34,13l-165 -60c-7,-3 -12,-8 -14,-15 -2,-7 -1,-15 3,-22 36,-58 75,-114 118,-168 5,-7 12,-11 20,-12 8,-1 15,1 20,7zm-271 476l165 60c12,4 18,17 14,30 -12,38 -22,77 -30,116 -3,13 -15,24 -28,25l-183 11c-8,0 -15,-2 -20,-8 -5,-6 -7,-13 -5,-21 12,-65 28,-129 49,-193 3,-8 8,-14 15,-18 7,-4 15,-5 22,-2zm-79 523l183 -11c13,-1 24,8 25,21 3,38 8,76 16,113 2,13 -5,26 -18,32l-173 80c-8,4 -15,4 -22,1 -7,-3 -11,-9 -13,-16 -13,-61 -22,-124 -26,-188 -1,-8 2,-15 8,-22 6,-6 13,-10 21,-10zm124 489l173 -80c13,-6 27,-2 33,9 18,32 38,63 59,93 7,10 5,25 -5,35l-137 137c-6,6 -13,9 -21,9 -8,0 -14,-3 -19,-9 -37,-49 -70,-101 -98,-155 -4,-7 -4,-14 -1,-22 3,-8 9,-14 16,-17zm792 631l76 -177c6,-13 19,-20 33,-17 39,9 78,16 118,21 14,2 24,13 23,27l-4 190c0,8 -4,16 -10,21 -6,6 -14,8 -22,7 -67,-7 -133,-19 -197,-35 -8,-2 -14,-7 -17,-14 -4,-7 -4,-15 0,-23zm540 38l4 -190c0,-14 11,-26 25,-28 40,-7 80,-15 119,-26 14,-4 27,3 32,16l69 174c3,8 3,15 -1,23 -4,8 -10,13 -18,15 -65,19 -132,34 -199,43 -8,1 -16,-1 -22,-6 -6,-5 -9,-12 -9,-21zm521 -171l-69 -174c-5,-13 0,-28 12,-35 35,-21 69,-45 102,-69 11,-9 27,-8 36,2l131 132c6,6 8,13 8,21 -1,8 -4,15 -11,21 -54,42 -111,81 -170,116 -7,4 -15,5 -23,3 -8,-3 -13,-8 -16,-15zm424 -356l-132 -132c-10,-10 -10,-25 -2,-36 25,-33 48,-67 69,-102 7,-12 22,-17 35,-12l174 69c8,3 13,9 15,16 3,8 2,16 -3,23 -35,59 -73,116 -116,170 -5,7 -12,10 -21,11 -8,1 -16,-2 -21,-8zm262 -485l-174 -69c-13,-5 -19,-19 -16,-32 11,-39 19,-79 26,-119 2,-14 14,-24 28,-24l190 -4c8,0 15,3 21,9 5,6 8,14 6,22 -10,67 -24,134 -43,199 -2,8 -7,14 -15,18 -8,4 -15,4 -23,1zm60 -542l-190 4c-14,0 -25,-10 -27,-23 -5,-40 -12,-79 -21,-118 -3,-13 4,-27 17,-33l177 -76c8,-3 16,-3 23,0 7,4 12,9 14,17 16,65 28,131 35,197 1,8 -2,16 -7,22 -6,6 -13,10 -21,10zm-150 -514l-177 76c-13,6 -28,1 -35,-11 -20,-34 -42,-67 -65,-99 -8,-11 -7,-26 3,-37l137 -137c6,-6 13,-9 22,-9 8,0 15,4 20,10 40,52 77,108 109,166 4,7 5,15 2,23 -3,8 -8,14 -16,17z"/>
    </symbol>
    <symbol id="icon-info-circle" viewBox="0 0 330 330">
        <path d="M165,0.008C74.019,0.008,0,74.024,0,164.999c0,90.977,74.019,164.992,165,164.992s165-74.015,165-164.992 C330,74.024,255.981,0.008,165,0.008z M165,299.992c-74.439,0-135-60.557-135-134.992S90.561,30.008,165,30.008 s135,60.557,135,134.991C300,239.436,239.439,299.992,165,299.992z"/>
        <path d="M165,130.008c-8.284,0-15,6.716-15,15v99.983c0,8.284,6.716,15,15,15s15-6.716,15-15v-99.983 C180,136.725,173.284,130.008,165,130.008z"/>
        <path d="M165,70.011c-3.95,0-7.811,1.6-10.61,4.39c-2.79,2.79-4.39,6.66-4.39,10.61s1.6,7.81,4.39,10.61 c2.79,2.79,6.66,4.39,10.61,4.39s7.81-1.6,10.609-4.39c2.79-2.8,4.391-6.66,4.391-10.61s-1.601-7.82-4.391-10.61 C172.81,71.61,168.95,70.011,165,70.011z"/>
    </symbol>
    <symbol id="icon-ak47" viewBox="0 0 47.4 14">
        <path d="M27.376 5.12c.177-.075.87-.03 1.115-.03.156 0 .43-.042.525.047.046.043.085.104.14.155.14.134.094.174.094.542 0 .344-.376.427-.56.52.02.02-.005.013.053.025.055.01.122.002.277-.065.518-.22.414-.652.436-.753.018-.082.564-.34.613-.347 0 .347-.004.695 0 1.042.002.225-.016.26-.135.38-.058.062-.2.202-.332.202H27.87c-.13 0-.303-.132-.39-.193-.17-.12-.138-.158-.138-.44 0-.25-.024-.947.03-1.084l.004-.002zM10.608 3.446c0 .107-.027.122.043.155h.577l-.01.053L7.58 3.6l-.003-.155h3.032zm-8.744.1c.122-.134.11-.107.363-.1.277.005.174-.016.213-.047.052-.044 0-.035.085-.056H5.63l-.01.204-3.754-.006-.002.004zm12.105-1.12c-.04.057-.025.06-.025.148l-1.173-.003c-.158-.206-.18-.145-.722-.145V2.22h4.62l.024.1c.408 0 .33-.042.335.108-.425 0-.36-.046-.36.15h-1.043c-.16 0-.09-.144-.32-.15l-1.34.003.002-.006zM7.68 2.22l3.08.01c-.11.118-.17.12-.182.343l-2.898-.01V2.22zm-6.498-.055c-.12 0-.13-.155-.107-.274.067-.313.098-.24.774-.24.15 0 .184.378.14.512h-.81l.004.003zm33.09 7.186c-.087-.08-.654-1.605-.752-1.852-.23-.585-.472-.963-.137-1.472.07-.107.06-.42.064-.582.048-.1-.013-.003.07-.055.173-.105.048-.096.203-.114.11-.012.28.01.39.02.82.1.58.083 1.01.306.645.335 1.498.588 2.13.87.392.176.773.368 1.17.538s.804.357 1.19.54c.385.182.796.346 1.183.53.625.295 1.158.496 1.774.828.122.067.49.235.552.308.082.003 1.908.96 2.225 1.13.165.09.213.147.442.14.118-.002.38-.023.43-.133.05-.11.15-1.51.264-1.886.043-.335.146-.728.225-1.06.078-.34.154-.68.24-1.022.085-.338.168-.677.253-1.012.05-.192.073-.335-.046-.485-.097-.122-.27-.122-.46-.16-1.414-.26-2.816-.514-4.227-.776l-2.115-.39c-.448-.085-.655-.137-1.125-.015-.405.104-.54.207-1.027.213-.31.006-.85-.04-1.097-.168-.183-.095-.21-.174-.463-.11-.107.027-.353-.058-.485-.082a13.376 13.376 0 0 0-1.094-.17l-1.134-.102c0-.17.02-.244-.058-.39-.052-.095-.128-.174-.155-.262l.165-.012c-.055-.055-.152-.12-.216-.165-.128-.09-.128-.074-.314-.083-.04-.216-.23-.384-.34-.503-.22-.232-.382-.457-.577-.463-.064-.002-.137.004-.2.004l-1.214-.006c-3.26 0-6.56-.058-9.824-.055V.986L20.81.98a.374.374 0 0 0 .093-.2c.08 0 .17-.01.247.008.097.024.018.04.19.043l.124-.353c-.3.012.01.152-.43.15-.286 0-.19-.114-.417-.105-.085.003-.143.034-.216.046l-1.916.006c-.433-.003-.19.082-.332.024-.183-.073-.277-.09-.503.05v.386c-.11-.006-.095 0-.14-.088C17.47.88 17.46.842 17.426.8l-5.333.134c-.35.01-.43-.05-.567.207l-.792.03c-.04.06-.003.038-.06.06-.077.03-3.338-.02-3.478.014-.317.08-.603.838-.84.987-.592.373-.937.3-1.522.3-.792 0-1.588-.037-2.383-.037 0-.326-.003-.268-.12-.518C2.222 1.74 1.758.832 1.737.71c.082-.085.13-.085.095-.268C1.77.125 1.14.192.922.21.87.314.78.38.79.56l.026 1.415C.68 2.07.71 1.853.71 2.408c-.184.003-.047 0-.138.107-.37 0-.183-.088-.418-.037-.024.162-.037.674.012.795.12.128.58.052.774.07.003.296.15.372.396.445.162.05.21-.006.32-.06.116-.06.232-.035.38-.03 1.57.04 3.362.118 4.886.115L7 3.95h.262c.116-.046.024-.064.15-.125l4.013.05c.073.036.088.06.122.127.408-.015 1.003.09 1.408.16.466.078.923.112 1.396.14.5.03.985.057 1.488.078.48.02.987.015 1.463.06.915.09 1.345.43 1.91.428.115 0 .285.024.37-.024.065-.037.126-.116.196-.177.125-.113.515-.043.72-.034l.727.027c.44.018 1.064.003 1.475.064-.015.162.006.107.037.21.018.06.003.104-.012.177-.384 1.814-1.23 3.177-2.46 4.505-.075.082-.164.146-.24.232a8.704 8.704 0 0 1-.725.664c-.18.144-.344.278-.527.415-.197.152-.5.3-.502.41-.003.08 1.256 2.06 1.402 2.29.192.296.177.375.567.155.405-.232 1.015-.664 1.347-.98.408-.388.515-.443.945-.915l.648-.737c1.073-1.326 1.743-2.493 2.322-4.17.158-.453.3-.913.457-1.38l.33-.003c.014.15-.016.445.008.56.033.153.235.135.3.278 0 .16-.025.314.04.424.072.128.103.247.17.27V6.73c0-.168-.033-.57.22-.238.08.11.075.082.23.082.028.01.275.34.62.36.192.012 1.783.012 1.874-.015.258-.07.453-.385.602-.345.094.055-.006.015.094.11.04.04.05.03.09.082.342.402.63 1.192.836 1.694.296.717.634 1.375.643 2.256.472.26 1.222.137 1.63-.12a1.53 1.53 0 0 0 .503-.51c.314-.562.128-.534.125-.735z"/>
    </symbol>
    <symbol id="icon-warning-triangle" viewBox="0 0 466.7 466.7">
        <path d="M459.925,358.907L269.505,61.503c-7.893-12.323-21.518-19.776-36.145-19.776c-14.628,0-28.254,7.453-36.146,19.776 L6.78,358.907c-8.462,13.209-9.047,29.987-1.511,43.752c7.522,13.757,21.964,22.319,37.655,22.319h380.854 c15.691,0,30.134-8.555,37.656-22.319C468.972,388.894,468.387,372.116,459.925,358.907z M209.453,162.607 c0-13.078,10.605-23.675,23.675-23.675c13.072,0,23.676,10.597,23.676,23.675v101.584c0,13.078-10.604,23.675-23.676,23.675 c-13.07,0-23.675-10.597-23.675-23.675V162.607z M232.682,373.613c-16.338,0-29.594-13.249-29.594-29.594 c0-16.347,13.256-29.594,29.594-29.594c16.339,0,29.595,13.247,29.595,29.594C262.276,360.364,249.021,373.613,232.682,373.613z"/>
    </symbol>
    <symbol  id="icon-envelope" viewBox="0 0 485.211 485.211">
        <path d="M485.211,363.906c0,10.637-2.992,20.498-7.785,29.174L324.225,221.67l151.54-132.584 c5.895,9.355,9.446,20.344,9.446,32.219V363.906z M242.606,252.793l210.863-184.5c-8.653-4.737-18.397-7.642-28.908-7.642H60.651 c-10.524,0-20.271,2.905-28.889,7.642L242.606,252.793z M301.393,241.631l-48.809,42.734c-2.855,2.487-6.41,3.729-9.978,3.729 c-3.57,0-7.125-1.242-9.98-3.729l-48.82-42.736L28.667,415.23c9.299,5.834,20.197,9.329,31.983,9.329h363.911 c11.784,0,22.687-3.495,31.983-9.329L301.393,241.631z M9.448,89.085C3.554,98.44,0,109.429,0,121.305v242.602 c0,10.637,2.978,20.498,7.789,29.174l153.183-171.44L9.448,89.085z"/>
    </symbol>
    <symbol  id="icon-agreement" viewBox="0 0 512 512">
        <path d="m72.778 1.985-70.738 70.738h70.738z"/>
        <path d="m511.945 107.782-21.213-21.213-36.084 36.084c-4.498-.143-9.042 1.481-12.468 4.907l-18.98 18.98 28.774 28.774 18.981-18.981c3.186-3.186 4.94-7.422 4.94-11.927 0-.184-.021-.365-.027-.548z"/>
        <path d="m203.116 250.128h249.847v40.693h-249.847z" transform="matrix(.707 -.707 .707 .707 -95.173 311.183)"/>
        <path d="m206.199 367.728-18.024 42.609 42.61-18.023z"/>
        <path d="m158.667 455.393-25.527-25.521-22.772 22.772h-62.512v-30h50.086l35.198-35.199 22.59 22.59 28.189-66.641 44.468-44.468h-162.775v-30h192.775l33.734-33.734h-226.509v-30h256.51l65.79-65.79v-139.402h-285.134v102.723h-102.723v409.277h387.856v-230.198l-132.791 132.793zm-48.182-313.936h166.998v30h-166.998z"/>
    </symbol>
    <symbol id="icon-faq" viewBox="0 0 512 512">
        <path d="M150.478,86.525c2.125-6.124,7.896-10.231,14.379-10.231s12.254,4.106,14.379,10.231l40.772,117.512 c30.071-26.151,67.106-41.894,106.677-45.398c0.067-42.419-16.345-82.201-46.388-112.242 c-30.593-30.593-71.317-47.06-114.578-46.376C123.963,0.682,84.772,17.536,55.365,47.477 C25.963,77.412,9.807,116.898,9.872,158.662c0.037,23.406,5.308,46.674,15.296,67.711L4.568,286.319v0.001 c-3.527,10.264-0.951,21.409,6.725,29.083c5.402,5.401,12.521,8.277,19.844,8.277c3.081,0,6.198-0.509,9.238-1.554l59.946-20.598 c17.803,8.453,37.205,13.513,56.935,14.895c5.143-32.174,18.494-62.237,39.064-87.787l-11.744-33.846h-39.445l-11.91,34.328 c-2.756,7.941-11.427,12.146-19.368,9.39c-7.942-2.755-12.145-11.426-9.39-19.368L150.478,86.525z"/>
        <polygon points="164.855,137.946 155.694,164.35 174.018,164.35"/>
        <path d="M347.147,289.227c-11.932,0-21.64,9.707-21.64,21.639v58.895c0,6.003,2.46,11.438,6.421,15.363v-6.634 c0-8.405,6.814-15.22,15.22-15.22s15.22,6.814,15.22,15.22v6.634c3.96-3.924,6.421-9.36,6.421-15.363v-58.895 C368.787,298.934,359.079,289.227,347.147,289.227z"/>
        <path d="M507.434,474.64l-20.599-59.947c9.988-21.037,15.26-44.305,15.296-67.711c0.065-41.764-16.091-81.25-45.493-111.185 c-29.408-29.94-68.598-46.795-110.353-47.456c-43.306-0.7-83.986,15.784-114.579,46.377 c-30.593,30.593-47.064,71.285-46.378,114.579c0.662,41.755,17.515,80.947,47.456,110.354 c29.875,29.345,69.263,45.496,110.938,45.495c0.081,0,0.166,0,0.248,0c23.406-0.036,46.674-5.309,67.712-15.296l59.946,20.598 c3.041,1.045,6.157,1.554,9.238,1.554c7.323,0,14.443-2.876,19.845-8.277C508.384,496.048,510.961,484.904,507.434,474.64z M399.226,369.762c0,23.423-15.545,43.279-36.86,49.805v15.184c0,8.405-6.814,15.22-15.22,15.22c-8.405,0-15.22-6.814-15.22-15.22 v-15.184c-21.314-6.526-36.86-26.382-36.86-49.805v-58.895c0-28.717,23.362-52.079,52.08-52.079 c28.718,0,52.08,23.362,52.08,52.079V369.762z"/>
    </symbol>
    <symbol id="icon-vk" viewBox="0 0 2048 1792">
        <path d="M1981 520q23 64-150 294-24 32-65 85-40 51-55 72t-30.5 49.5-12 42 13 34.5 32.5 43 57 53q4 2 5 4 141 131 191 221 3 5 6.5 12.5t7 26.5-.5 34-25 27.5-59 12.5l-256 4q-24 5-56-5t-52-22l-20-12q-30-21-70-64t-68.5-77.5-61-58-56.5-15.5q-3 1-8 3.5t-17 14.5-21.5 29.5-17 52-6.5 77.5q0 15-3.5 27.5t-7.5 18.5l-4 5q-18 19-53 22h-115q-71 4-146-16.5t-131.5-53-103-66-70.5-57.5l-25-24q-10-10-27.5-30t-71.5-91-106-151-122.5-211-130.5-272q-6-16-6-27t3-16l4-6q15-19 57-19l274-2q12 2 23 6.5t16 8.5l5 3q16 11 24 32 20 50 46 103.5t41 81.5l16 29q29 60 56 104t48.5 68.5 41.5 38.5 34 14 27-5q2-1 5-5t12-22 13.5-47 9.5-81 0-125q-2-40-9-73t-14-46l-6-12q-25-34-85-43-13-2 5-24 16-19 38-30 53-26 239-24 82 1 135 13 20 5 33.5 13.5t20.5 24 10.5 32 3.5 45.5-1 55-2.5 70.5-1.5 82.5q0 11-1 42t-.5 48 3.5 40.5 11.5 39 22.5 24.5q8 2 17 4t26-11 38-34.5 52-67 68-107.5q60-104 107-225 4-10 10-17.5t11-10.5l4-3 5-2.5 13-3 20-.5 288-2q39-5 64 2.5t31 16.5z"/>
    </symbol>
    <symbol id="icon-yt" viewBox="0 0 576 512">
        <path d="M549.655 124.083c-6.281-23.65-24.787-42.276-48.284-48.597C458.781 64 288 64 288 64S117.22 64 74.629 75.486c-23.497 6.322-42.003 24.947-48.284 48.597-11.412 42.867-11.412 132.305-11.412 132.305s0 89.438 11.412 132.305c6.281 23.65 24.787 41.5 48.284 47.821C117.22 448 288 448 288 448s170.78 0 213.371-11.486c23.497-6.321 42.003-24.171 48.284-47.821 11.412-42.867 11.412-132.305 11.412-132.305s0-89.438-11.412-132.305zm-317.51 213.508V175.185l142.739 81.205-142.739 81.201z"/>
    </symbol>
    <symbol id="icon-tg" viewBox="0 0 24 24">
        <path fill-rule="evenodd"
              d="M18.384,22.779c0.322,0.228 0.737,0.285 1.107,0.145c0.37,-0.141 0.642,-0.457 0.724,-0.84c0.869,-4.084 2.977,-14.421 3.768,-18.136c0.06,-0.28 -0.04,-0.571 -0.26,-0.758c-0.22,-0.187 -0.525,-0.241 -0.797,-0.14c-4.193,1.552 -17.106,6.397 -22.384,8.35c-0.335,0.124 -0.553,0.446 -0.542,0.799c0.012,0.354 0.25,0.661 0.593,0.764c2.367,0.708 5.474,1.693 5.474,1.693c0,0 1.452,4.385 2.209,6.615c0.095,0.28 0.314,0.5 0.603,0.576c0.288,0.075 0.596,-0.004 0.811,-0.207c1.216,-1.148 3.096,-2.923 3.096,-2.923c0,0 3.572,2.619 5.598,4.062Zm-11.01,-8.677l1.679,5.538l0.373,-3.507c0,0 6.487,-5.851 10.185,-9.186c0.108,-0.098 0.123,-0.262 0.033,-0.377c-0.089,-0.115 -0.253,-0.142 -0.376,-0.064c-4.286,2.737 -11.894,7.596 -11.894,7.596Z"/>
    </symbol>
    <symbol viewBox="0 0 469 512" id="icon-copy">
        <path d="M469.33,58.67A58.66,58.66,0,0,0,410.67,0H165.33a58.66,58.66,0,0,0-58.66,58.67v288a58.66,58.66,0,0,0,58.66,58.66H410.67a58.66,58.66,0,0,0,58.66-58.66ZM368,309.33H208a16,16,0,0,1,0-32H368a16,16,0,0,1,0,32Zm0-64H208a16,16,0,0,1,0-32H368a16,16,0,0,1,0,32Zm0-64H208a16,16,0,0,1,0-32H368a16,16,0,0,1,0,32Z"/>
        <path d="M165.33,437.33a90.76,90.76,0,0,1-90.66-90.66v-288c0-1.84.42-3.54.53-5.34H58.67A58.72,58.72,0,0,0,0,112V453.33A58.71,58.71,0,0,0,58.67,512h256a58.71,58.71,0,0,0,58.66-58.67v-16Z"/>
    </symbol>
    <symbol id="icon-percent" viewBox="0 0 15.118 15.107">
        <path d="M14.059,5.436V3.245l-2.204-1.102L9.712,0L7.559,0.538L5.406,0L3.263,2.143L1.059,3.245v2.191L0,7.554l1.059,2.118v2.191  l2.204,1.102l2.143,2.143l2.153-0.538l2.153,0.538l2.143-2.143l2.204-1.102V9.672l1.059-2.118L14.059,5.436z M13.059,9.436v1.809  l-1.724,0.862L9.406,14l-1.847-0.462L5.712,14l-1.8-1.8l-1.854-0.956V9.436L1.118,7.554l0.941-1.882V3.863l1.724-0.862l1.93-1.894  l1.847,0.462l1.847-0.462l1.8,1.8l1.854,0.956v1.809L14,7.554L13.059,9.436z"/>
        <rect height="1" transform="matrix(0.7071 -0.7071 0.7071 0.7071 -3.1273 7.5575)" width="8.485" x="3.316" y="7.054"/>
        <path d="M5.559,7.054c0.827,0,1.5-0.673,1.5-1.5s-0.673-1.5-1.5-1.5s-1.5,0.673-1.5,1.5S4.732,7.054,5.559,7.054z M5.559,5.054  c0.276,0,0.5,0.224,0.5,0.5s-0.224,0.5-0.5,0.5s-0.5-0.224-0.5-0.5S5.283,5.054,5.559,5.054z"/>
        <path d="M9.559,8.054c-0.827,0-1.5,0.673-1.5,1.5s0.673,1.5,1.5,1.5s1.5-0.673,1.5-1.5S10.386,8.054,9.559,8.054z M9.559,10.054  c-0.276,0-0.5-0.224-0.5-0.5s0.224-0.5,0.5-0.5s0.5,0.224,0.5,0.5S9.835,10.054,9.559,10.054z"/>
    </symbol>
    <symbol id="icon-plus" viewBox="0 0 26 26">
        <polygon points="26 9.5 16.5 9.5 16.5 0 9.5 0 9.5 9.5 0 9.5 0 16.5 9.5 16.5 9.5 26 16.5 26 16.5 16.5 26 16.5 26 9.5"/>
    </symbol>
    <symbol id="icon-bcn" viewBox="0 0 512 512">
        <path d="M256,0C114.6,0,0,114.6,0,256s114.6,256,256,256s256-114.6,256-256S397.4,0,256,0z M399.4,316.1 c0,53.6-43.6,97.1-97.1,97.1H146.8v-46.5h155.4c27.9,0,50.6-22.7,50.6-50.6c0-11.1-3.5-21.7-10.3-30.5c-6.9-9.1-14.3-14-28.1-18.6 c-1.1-0.4-4.6-1.2-6.6-1.7l-22-5.1l21.9-5.2c2-0.5,5.6-1.4,6.7-1.7c13.3-4.3,21.1-9.5,28.1-18.6c6.7-8.9,10.3-19.4,10.3-30.5 c0-27.9-22.7-50.6-50.6-50.6l-155.4,0v-46.5l155.4,0c53.6,0,97.1,43.6,97.1,97.1c0,20.3-6.2,39.6-17.8,56 C393.1,276.4,399.4,296.1,399.4,316.1z M299,293.4c12.8,0,23.2,10.2,23.2,22.6s-10.4,22.6-23.2,22.6H147.5l0.1-157.7l151.7-0.4 c0,0,0,0,0.1,0c6.3,0,12.2,2.4,16.6,6.8c4.3,4.3,6.6,9.9,6.6,15.8l0,0.4c0,5.9-2.4,11.6-6.6,15.8c-4.4,4.4-10.3,6.8-16.6,6.8 c0,0,0,0-0.1,0l-105.6-0.3v67.5H299z"/>
    </symbol>
    <symbol id="icon-at" viewBox="0 0 512 512">
        <path d="M257,210c-24.814,0-45,20.186-45,45c0,24.814,20.186,45,45,45c24.814,0,45-20.186,45-45C302,230.186,281.814,210,257,210z"/>
        <path d="M255,0C114.39,0,0,114.39,0,255s114.39,257,255,257s257-116.39,257-257S395.61,0,255,0z M362,330
			c-20.273,0-38.152-10.161-49.017-25.596C299.23,319.971,279.354,330,257,330c-41.353,0-75-33.647-75-75c0-41.353,33.647-75,75-75
			c16.948,0,32.426,5.865,45,15.383V195c0-8.291,6.709-15,15-15c8.291,0,15,6.709,15,15c0,33.36,0,41.625,0,75
			c0,16.538,13.462,30,30,30c16.538,0,30-13.462,30-30c0-100.391-66.432-150-135-150c-74.443,0-135,60.557-135,135
			s60.557,135,135,135c30,0,58.374-9.609,82.061-27.803c15.822-12.078,33.94,11.765,18.281,23.789
			C328.353,408.237,293.665,420,257,420c-90.981,0-165-74.019-165-165S166.019,90,257,90c82.897,0,165,61.135,165,180
			C422,303.091,395.091,330,362,330z"/>
    </symbol>
    <symbol id="icon-search" viewBox="0 0 252 252">
        <path d="M246.73,216.92l-55.06-55.06A104.62,104.62,0,0,0,178.28,30.55h0a104.4,104.4,0,1,0-16.42,161.12l55,55.05a21.08,21.08,0,1,0,29.82-29.8ZM60.36,148.47a62.3,62.3,0,1,1,88.12,0h0A62.37,62.37,0,0,1,60.36,148.47Z"/>

    </symbol>
    <symbol id="icon-shield" viewBox="0 0 435.1 512">
        <path d="M434,121a49.89,49.89,0,0,0-2.48-14,53.2,53.2,0,0,0-4.91-10.74,55.39,55.39,0,0,0-4-5.84c-1-1.24-2-2.44-3.08-3.59s-2.2-2.26-3.36-3.32-2.38-2.07-3.64-3a55.47,55.47,0,0,0-5.9-3.93c-1.36-.78-2.77-1.51-4.2-2.17a50.44,50.44,0,0,0-16-4.44c-19.87-2-39.7-4-59-9.58a201.86,201.86,0,0,1-77-41.75l-.37-.34C242,10.78,234.05,3.15,223.11,0h-12c-9.62,3-17,9.22-24.31,15.86-30,27.36-65.35,43.69-105.33,50C70.79,67.6,60,68.4,49.24,69.73,20.41,73.31.27,95.15.19,124.06.09,161.7-.57,199.42,1.37,237c2.53,48.93,12.91,96.24,36.46,140,20.93,38.85,50.25,69.85,87,94,24.59,16.21,51.05,28.64,78.79,38.41,2.81,1,5.69,1.74,8.54,2.61h10a341.92,341.92,0,0,0,93.45-45.32c48.08-33.28,80.88-78,99.47-133.32,9.33-27.76,14.24-56.41,17.09-85.48q.78-7.92,1.32-15.84c1.1-15.85,1.57-31.7,1.65-47.56C435.2,163.33,434.64,142.17,434,121ZM217.36,383.6c-69.65.7-128.16-57.75-127.85-127.71C89.82,185.57,147,128.44,217.09,128.4S344.33,185.5,344.7,255.87C345.07,325.68,288,382.89,217.36,383.6Z"/>
        <path d="M217.6,158.52c-53.11-.9-97.28,42.85-98,97.11-.74,53,42.21,96.87,96.79,97.76,53.1.86,97.65-41.92,98.23-96.75C315.7,203.66,272,159.44,217.6,158.52Zm58.82,77.35a36.33,36.33,0,0,1-3.71,4q-32.65,32.68-65.32,65.35c-9,9-16.75,9-25.77,0q-11.51-11.46-23-23c-7.1-7.17-7.68-16.36-1.52-22.59,6.34-6.42,15.3-6,22.55,1.25,4.82,4.8,9.43,9.81,14.54,15.16,19.93-20,39-39,58-58.15,4.67-4.7,9.89-7.27,16.6-5.13A14.84,14.84,0,0,1,276.42,235.87Z"/>
    </symbol>
    <symbol id="icon-heart" viewBox="0 0 399.1 349.53">
        <path fill="#ff7842"
              d="M399.1,100.15V122.1a9.83,9.83,0,0,0-.84,2.26c-3.16,26.19-14.5,48.25-33.13,66.83q-74.6,74.37-149,148.87c-3.67,3.65-8.31,6.34-12.49,9.47h-8c-4.19-3.14-8.83-5.83-12.5-9.49q-75.42-75.1-150.53-150.51c-26-26.25-36.82-58.37-31.07-94.75C8.32,51.68,33,21.4,74.14,6.92c40.67-14.32,78.19-6.17,111,22.14,5,4.3,9.54,9.1,15.5,14.83,4.79-5.3,9-10.76,14-15.29C273.23-24.4,368.28.66,393.1,75.67,395.73,83.62,397.13,92,399.1,100.15ZM199.5,307.92a15,15,0,0,0,1.28-.9Q272,235.82,343.15,164.54c15.77-15.9,23.06-35.64,21.4-58-2.23-30-17.15-52.28-44.45-64.75-26.84-12.27-53.36-9.64-77.14,8.12-10.56,7.9-19.47,18-29,27.3-9.66,9.43-19.14,9.58-28.59.15-6.46-6.46-12.85-13-19.4-19.37-27.73-26.95-68.54-31-98.44-9.87-40,28.25-44.69,83.21-10,118q69.14,69.41,138.52,138.56C197.14,305.77,198.25,306.74,199.5,307.92Z"/>
        <path fill="#ff1867"
              d="M199.5,307.92c-1.25-1.18-2.36-2.15-3.4-3.19Q126.83,235.48,57.58,166.17c-34.71-34.83-30-89.79,10-118C97.46,27,138.27,31.05,166,58c6.55,6.37,12.94,12.91,19.4,19.37,9.45,9.43,18.93,9.28,28.59-.15,9.5-9.27,18.41-19.4,29-27.3,23.78-17.76,50.3-20.39,77.14-8.12,27.3,12.47,42.22,34.76,44.45,64.75,1.66,22.35-5.63,42.09-21.4,58Q272.22,236,200.78,307A15,15,0,0,1,199.5,307.92Z"/>
    </symbol>
    <symbol id="icon-heart-empty" viewBox="0 0 399.1 349.53">
        <path fill="#ff7842"
              d="M393.1,75.67C368.28.66,273.23-24.4,214.6,28.6c-5,4.53-9.18,10-14,15.29-6-5.73-10.51-10.53-15.5-14.83C152.33.75,114.81-7.4,74.14,6.92,33,21.4,8.32,51.68,1.51,94.78c-5.75,36.38,5,68.5,31.07,94.75q75,75.56,150.53,150.51c3.67,3.66,8.31,6.35,12.5,9.49h8c4.18-3.13,8.82-5.82,12.49-9.47q74.62-74.34,149-148.87c18.63-18.58,30-40.64,33.13-66.83a9.83,9.83,0,0,1,.84-2.26V100.15C397.13,92,395.73,83.62,393.1,75.67Zm-50,88.87Q272.22,236,200.78,307a15,15,0,0,1-1.28.9c-1.25-1.18-2.36-2.15-3.4-3.19Q126.83,235.48,57.58,166.17c-34.71-34.83-30-89.79,10-118C97.46,27,138.27,31.05,166,58c6.55,6.37,12.94,12.91,19.4,19.37,9.45,9.43,18.93,9.28,28.59-.15,9.5-9.27,18.41-19.4,29-27.3,23.78-17.76,50.3-20.39,77.14-8.12,27.3,12.47,42.22,34.76,44.45,64.75C366.21,128.9,358.92,148.64,343.15,164.54Z"/>
    </symbol>
    <symbol id="icon-trophy"  viewBox="0 0 512 512" >
        <path d="M386.781,440.45h-13.043v-30.993H138.264v30.993h-13.043c-23.348,0-42.344,18.996-42.344,42.345V512h346.247v-29.206 C429.125,459.446,410.13,440.45,386.781,440.45z"/>
        <path d="M415.142,32.164L415.142,32.164V0H96.86v32.164H0v15.209c0,35.932,11.25,69.857,31.679,95.524 c17.674,22.207,40.413,36.101,65.181,40.143v0.121c0,74.184,51.023,136.669,119.817,154.219v41.66h78.647v-41.66 c68.795-17.55,119.818-80.036,119.818-154.219v-0.121c24.768-4.042,47.507-17.937,65.18-40.143 C500.749,117.23,512,83.306,512,47.373V32.164H415.142z M96.86,152.009c-34.026-8.394-60.656-44.407-65.612-89.428H96.86V152.009z M313.745,241.909l-57.744-30.357l-57.744,30.357l11.027-64.298l-46.715-45.536l64.559-9.383L256,64.194l28.872,58.499 l64.561,9.383l-46.716,45.536L313.745,241.909z M415.142,152.009V62.581h65.612C475.797,107.602,449.167,143.615,415.142,152.009z"/>
    </symbol>
    <symbol id="icon-gamepad" viewBox="0 0 159.07 103.26">
        <path d="M158.16,56.25a81,81,0,0,0-1.5-8.65c-2.69-10.15-6-20.07-11.64-29.07A42.4,42.4,0,0,0,131.77,4.58C123.18-.81,113.94-1.11,104.49,2A46.83,46.83,0,0,0,92,8a13.41,13.41,0,0,1-7.33,2.62c-3.69.1-7.4.13-11.08-.09-2.88-.18-5.4-1.63-7.77-3.19A42.21,42.21,0,0,0,44.4.09c-8-.37-14.93,2.26-21.09,7.4C16.64,13,12.85,20.45,9.07,28,4.76,36.53,2.42,45.65,1,55.06.67,57.35.54,59.68.3,62c-.06.59-.2,1.18-.3,1.76V76.81c.31,2.66.56,5.32.94,8a38.94,38.94,0,0,0,2.76,11c3,6.57,11.63,9.24,17.65,6C26.52,98.94,30.73,95,34.83,91c3.88-3.83,7.59-7.83,11.28-11.84a11.13,11.13,0,0,1,8.44-3.84q25-.07,50,0A11.52,11.52,0,0,1,113,79.25c4.13,4.32,8,8.94,12.33,13a76.33,76.33,0,0,0,12,9.2c6.14,3.77,13.64,1.42,17.25-4.82a30.48,30.48,0,0,0,3.6-12q.45-3.88.92-7.79V63.75C158.77,61.25,158.53,58.74,158.16,56.25ZM60.63,45.09a1.92,1.92,0,0,1-1.47.67c-2.73.06-5.47,0-8.2,0-.5,0-1,.05-1.63.08,0,3,0,6,0,8.87a1.83,1.83,0,0,1-1.32,2,9.53,9.53,0,0,1-8.07,0,2.12,2.12,0,0,1-1.38-2.24c.09-2.87,0-5.74,0-8.77-3.08,0-6-.07-8.92,0a2.08,2.08,0,0,1-2.35-1.6,11.37,11.37,0,0,1,.12-8.14A1.55,1.55,0,0,1,29.18,35c3.19.06,6.37,0,9.79,0,0-3.28.05-6.36,0-9.43a1.47,1.47,0,0,1,1.26-1.69,12.59,12.59,0,0,1,8.6.35,1.87,1.87,0,0,1,.92,1.4c.07,2.53,0,5.06,0,7.59V35c3.06,0,5.94.08,8.82,0a2.39,2.39,0,0,1,2.55,1.59C62.55,39.51,62.11,42.34,60.63,45.09Zm49.8-27.59a8.29,8.29,0,0,1,8.5,8.54,8.53,8.53,0,0,1-17.06-.54A8.25,8.25,0,0,1,110.43,17.5Zm-.08,39.9a8.37,8.37,0,1,1-.09-16.74,8.42,8.42,0,0,1,8.67,8.27A8.33,8.33,0,0,1,110.35,57.4Zm21.52-10.7c-4.67-.16-8.67-3.27-8.7-8.41,0-4.91,4-8.28,8.73-8.34a8.38,8.38,0,0,1,0,16.75Z"/>
    </symbol>
</svg>
